<svg id="svg" version="1.1" xmlns="http://www.w3.org/2000/svg" xmlns:xlink="http://www.w3.org/1999/xlink" width="400" height="400" viewBox="0, 0, 400,400"><g id="svgg"><path id="path0" d="M197.500 84.276 C 197.115 84.376,196.800 84.625,196.800 84.829 C 196.800 85.039,194.458 85.200,191.424 85.200 C 188.271 85.200,185.945 85.365,185.800 85.600 C 185.664 85.820,184.568 86.000,183.364 86.000 C 181.787 86.000,181.110 86.168,180.945 86.600 C 180.789 87.005,180.153 87.200,178.986 87.200 C 177.983 87.200,177.005 87.452,176.657 87.800 C 176.327 88.130,175.409 88.400,174.616 88.400 C 173.704 88.400,173.090 88.620,172.945 89.000 C 172.818 89.330,172.294 89.600,171.781 89.600 C 171.267 89.600,170.736 89.780,170.600 90.000 C 170.464 90.220,169.948 90.400,169.453 90.400 C 168.958 90.400,168.204 90.664,167.776 90.987 C 167.349 91.310,166.679 91.580,166.287 91.587 C 165.896 91.594,165.471 91.870,165.345 92.200 C 165.218 92.530,164.678 92.800,164.145 92.800 C 163.611 92.800,163.071 93.070,162.945 93.400 C 162.818 93.730,162.368 94.000,161.945 94.000 C 161.521 94.000,161.071 94.270,160.945 94.600 C 160.818 94.930,160.464 95.200,160.157 95.200 C 159.851 95.200,159.600 95.380,159.600 95.600 C 159.600 95.820,159.144 96.000,158.587 96.000 C 158.031 96.000,157.471 96.270,157.345 96.600 C 157.218 96.930,156.864 97.200,156.557 97.200 C 156.251 97.200,156.000 97.470,156.000 97.800 C 156.000 98.379,155.553 98.567,154.500 98.430 C 154.225 98.394,154.000 98.643,154.000 98.982 C 154.000 99.322,153.796 99.600,153.546 99.600 C 153.296 99.600,152.694 100.029,152.208 100.553 C 151.722 101.077,150.937 101.630,150.462 101.780 C 149.988 101.931,149.600 102.222,149.600 102.427 C 149.600 102.632,149.330 102.800,149.000 102.800 C 148.670 102.800,148.400 103.070,148.400 103.400 C 148.400 103.730,148.130 104.000,147.800 104.000 C 147.470 104.000,147.200 104.270,147.200 104.600 C 147.200 104.930,147.007 105.200,146.771 105.200 C 146.218 105.200,145.200 106.218,145.200 106.771 C 145.200 107.007,144.930 107.200,144.600 107.200 C 144.270 107.200,144.000 107.470,144.000 107.800 C 144.000 108.130,143.730 108.400,143.400 108.400 C 143.070 108.400,142.800 108.670,142.800 109.000 C 142.800 109.433,142.356 109.600,141.200 109.600 C 140.320 109.600,139.600 109.780,139.600 110.000 C 139.600 110.220,138.983 110.400,138.229 110.400 C 137.474 110.400,136.587 110.670,136.257 111.000 C 135.927 111.330,135.099 111.600,134.416 111.600 C 133.682 111.600,133.081 111.845,132.945 112.200 C 132.818 112.530,132.303 112.800,131.800 112.800 C 131.297 112.800,130.782 113.070,130.655 113.400 C 130.529 113.730,129.969 114.000,129.413 114.000 C 128.779 114.000,128.400 114.225,128.400 114.600 C 128.400 114.930,128.055 115.200,127.632 115.200 C 126.810 115.200,124.288 116.403,124.067 116.900 C 123.993 117.065,123.678 117.200,123.367 117.200 C 123.055 117.200,122.800 117.470,122.800 117.800 C 122.800 118.173,122.422 118.400,121.800 118.400 C 121.178 118.400,120.800 118.627,120.800 119.000 C 120.800 119.330,120.596 119.600,120.346 119.600 C 120.096 119.600,119.475 120.050,118.965 120.600 C 118.455 121.150,117.890 121.600,117.708 121.600 C 117.527 121.600,116.787 122.140,116.064 122.800 C 115.342 123.460,114.582 124.000,114.375 124.000 C 114.169 124.000,114.000 124.270,114.000 124.600 C 114.000 124.930,113.808 125.200,113.574 125.200 C 113.110 125.200,111.374 127.131,110.366 128.769 C 110.017 129.336,108.993 130.568,108.091 131.507 C 106.267 133.404,105.698 134.658,106.360 135.320 C 107.035 135.995,106.889 137.069,105.900 138.708 C 104.257 141.432,101.834 147.087,101.171 149.745 C 99.299 157.253,99.165 158.254,99.157 164.745 C 99.149 171.625,99.361 173.088,101.243 179.128 C 103.830 187.426,109.655 195.757,115.456 199.453 C 116.085 199.854,116.690 200.290,116.800 200.424 C 117.244 200.961,123.955 203.996,126.200 204.674 C 129.596 205.701,140.515 205.715,143.314 204.697 C 145.990 203.723,147.373 203.794,148.126 204.944 C 148.467 205.463,148.992 206.138,149.295 206.444 C 150.662 207.827,150.448 208.586,147.829 211.628 C 145.882 213.891,145.095 214.899,143.621 217.018 C 142.862 218.108,142.142 219.090,142.021 219.200 C 140.155 220.891,131.200 236.862,131.200 238.497 C 131.200 238.796,131.050 239.211,130.866 239.420 C 130.085 240.309,128.342 246.226,127.423 251.108 C 126.250 257.337,126.791 266.446,128.680 272.284 L 129.355 274.368 127.920 276.484 C 123.831 282.515,122.110 291.401,123.963 296.915 C 124.777 299.337,124.393 299.519,118.129 299.669 C 112.953 299.794,112.676 299.843,112.053 300.743 C 111.694 301.262,110.995 302.093,110.500 302.589 C 110.005 303.086,109.600 303.718,109.600 303.995 C 109.600 304.384,109.442 304.375,108.900 303.956 C 108.233 303.440,108.233 303.453,108.900 304.238 C 109.285 304.692,109.600 305.452,109.600 305.927 C 109.600 307.101,110.785 308.400,111.856 308.400 C 112.338 308.400,112.799 308.598,112.880 308.839 C 113.138 309.613,116.800 309.820,116.800 309.061 C 116.800 307.518,118.447 307.133,124.475 307.270 L 130.200 307.400 132.400 309.069 C 138.202 313.471,140.495 314.000,153.768 314.000 C 166.927 314.000,169.420 313.380,175.341 308.635 L 176.882 307.400 199.642 307.290 C 223.584 307.175,223.478 307.168,225.262 308.905 C 226.834 310.434,231.204 312.624,234.320 313.443 C 237.340 314.237,256.229 314.225,258.857 313.428 C 261.738 312.553,265.186 310.819,267.600 309.030 L 269.800 307.400 275.927 307.271 C 282.369 307.136,284.000 307.496,284.000 309.054 C 284.000 309.756,286.869 309.493,287.133 308.767 C 287.207 308.565,287.612 308.400,288.033 308.400 C 289.517 308.400,290.400 306.983,290.400 304.600 C 290.400 303.012,290.249 302.400,289.856 302.400 C 289.557 302.400,288.977 301.954,288.568 301.409 C 287.475 299.954,287.106 299.864,281.200 299.622 L 275.800 299.400 275.919 298.000 C 276.917 286.293,276.069 281.770,271.844 276.253 C 270.691 274.749,270.673 274.657,271.182 272.853 C 273.743 263.778,273.794 255.178,271.341 246.000 C 271.018 244.790,270.584 243.487,270.377 243.105 C 270.169 242.723,270.000 242.211,270.000 241.966 C 270.000 241.721,269.743 240.954,269.430 240.260 C 269.116 239.567,268.382 237.920,267.799 236.600 C 265.347 231.054,263.940 228.523,259.684 222.000 C 256.829 217.625,254.464 214.497,251.104 210.654 C 249.438 208.748,249.372 208.107,250.658 206.291 C 252.294 203.979,252.838 203.728,254.883 204.338 C 263.378 206.871,274.721 205.504,281.792 201.094 C 286.061 198.432,293.200 191.512,293.200 190.036 C 293.200 189.796,293.345 189.600,293.522 189.600 C 294.033 189.600,297.450 182.498,298.526 179.200 C 302.941 165.665,300.788 149.946,292.708 136.725 C 291.927 135.447,291.868 135.085,292.270 134.020 C 292.644 133.030,292.624 132.681,292.167 132.224 C 291.855 131.912,291.600 131.546,291.600 131.409 C 291.600 131.273,291.150 130.745,290.600 130.235 C 290.050 129.725,289.600 129.104,289.600 128.854 C 289.600 128.604,289.330 128.400,289.000 128.400 C 288.670 128.400,288.400 128.130,288.400 127.800 C 288.400 127.470,288.130 127.200,287.800 127.200 C 287.470 127.200,287.192 126.975,287.181 126.700 C 287.171 126.425,286.460 125.660,285.600 125.000 C 284.740 124.340,284.029 123.575,284.019 123.300 C 284.008 123.025,283.730 122.800,283.400 122.800 C 283.070 122.800,282.800 122.530,282.800 122.200 C 282.800 121.870,282.611 121.600,282.381 121.600 C 282.150 121.600,281.545 121.150,281.035 120.600 C 280.525 120.050,279.808 119.600,279.442 119.600 C 279.075 119.600,278.671 119.330,278.545 119.000 C 278.418 118.670,278.064 118.400,277.757 118.400 C 277.451 118.400,277.200 118.130,277.200 117.800 C 277.200 117.470,276.853 117.200,276.429 117.200 C 276.004 117.200,275.387 116.930,275.057 116.600 C 274.727 116.270,274.264 116.000,274.029 116.000 C 273.793 116.000,273.600 115.820,273.600 115.600 C 273.600 115.380,273.150 115.200,272.600 115.200 C 271.978 115.200,271.600 114.973,271.600 114.600 C 271.600 114.200,271.200 114.000,270.400 114.000 C 269.600 114.000,269.200 113.800,269.200 113.400 C 269.200 112.875,267.904 112.548,266.670 112.763 C 266.489 112.794,266.451 112.641,266.587 112.422 C 266.722 112.203,266.330 111.916,265.716 111.785 C 265.102 111.654,264.122 111.289,263.538 110.974 C 262.954 110.658,262.009 110.400,261.438 110.400 C 260.867 110.400,260.400 110.220,260.400 110.000 C 260.400 109.780,259.778 109.600,259.018 109.600 C 257.877 109.600,257.247 109.215,255.417 107.400 C 254.198 106.190,253.039 105.200,252.843 105.200 C 252.646 105.200,252.382 104.930,252.255 104.600 C 252.129 104.270,251.659 104.000,251.213 104.000 C 250.766 104.000,250.400 103.806,250.400 103.568 C 250.400 102.932,246.957 99.600,246.298 99.600 C 245.988 99.600,245.208 99.065,244.567 98.411 C 243.925 97.757,243.175 97.217,242.900 97.211 C 242.625 97.205,242.400 97.023,242.400 96.808 C 242.400 96.592,241.950 96.302,241.400 96.164 C 240.850 96.026,240.400 95.753,240.400 95.557 C 240.400 95.360,239.950 95.200,239.400 95.200 C 238.778 95.200,238.400 94.973,238.400 94.600 C 238.400 94.270,238.062 94.000,237.649 94.000 C 237.236 94.000,236.674 93.730,236.400 93.400 C 236.126 93.070,235.676 92.800,235.400 92.800 C 235.124 92.800,234.674 92.530,234.400 92.200 C 234.126 91.870,233.496 91.600,233.000 91.600 C 232.504 91.600,231.874 91.330,231.600 91.000 C 231.326 90.670,230.674 90.400,230.151 90.400 C 229.628 90.400,229.200 90.220,229.200 90.000 C 229.200 89.780,228.682 89.600,228.049 89.600 C 227.416 89.600,226.674 89.330,226.400 89.000 C 226.126 88.670,225.288 88.400,224.538 88.400 C 223.695 88.400,223.087 88.171,222.945 87.800 C 222.794 87.406,222.169 87.200,221.129 87.200 C 220.252 87.200,219.274 86.932,218.943 86.600 C 218.544 86.202,217.546 86.000,215.971 86.000 C 214.657 86.000,213.600 85.822,213.600 85.600 C 213.600 85.380,213.409 85.200,213.176 85.200 C 212.943 85.200,212.880 85.425,213.035 85.700 C 213.261 86.100,213.210 86.100,212.779 85.700 C 212.409 85.357,210.711 85.200,207.363 85.200 C 203.396 85.200,202.443 85.088,202.255 84.600 C 202.030 84.012,199.239 83.821,197.500 84.276 M206.400 93.997 C 208.930 94.212,211.720 94.556,212.600 94.763 C 219.867 96.465,221.974 97.074,224.660 98.249 C 225.354 98.552,226.029 98.800,226.162 98.800 C 226.416 98.800,233.194 102.104,234.655 102.940 C 235.581 103.470,238.609 105.511,239.592 106.268 C 242.761 108.709,245.914 111.457,248.504 114.037 C 251.564 117.084,254.856 118.800,257.644 118.800 C 258.034 118.800,258.450 118.957,258.568 119.148 C 258.686 119.340,259.325 119.605,259.987 119.737 C 262.336 120.207,271.944 125.142,272.333 126.079 C 272.407 126.256,272.657 126.400,272.890 126.400 C 274.340 126.400,282.438 134.580,285.365 139.000 C 297.978 158.047,295.864 179.514,280.036 193.129 C 275.708 196.851,268.539 198.844,261.760 198.209 C 257.375 197.798,256.609 196.789,258.267 193.611 C 258.558 193.055,258.796 192.321,258.798 191.980 C 258.799 191.639,258.952 191.189,259.137 190.980 C 260.262 189.711,262.000 179.599,262.000 174.325 C 262.000 169.184,261.117 167.600,258.251 167.600 C 255.705 167.600,254.802 168.915,254.787 172.646 C 254.748 181.982,251.987 191.146,246.846 199.000 C 243.918 203.475,233.365 213.600,231.630 213.600 C 231.394 213.600,231.200 213.768,231.200 213.973 C 231.200 214.178,230.795 214.472,230.300 214.627 C 229.805 214.781,229.310 215.043,229.200 215.208 C 228.908 215.646,221.343 219.200,220.703 219.200 C 220.404 219.200,219.989 219.355,219.780 219.545 C 219.405 219.884,218.735 220.081,212.800 221.590 C 188.505 227.769,160.385 215.174,149.865 193.400 C 148.571 190.722,148.278 189.979,147.262 186.789 C 146.459 184.267,145.654 178.701,145.414 174.000 C 145.098 167.811,142.694 165.666,139.322 168.565 C 137.108 170.468,138.013 184.364,140.783 191.000 C 143.702 197.991,143.459 198.254,134.200 198.142 C 111.445 197.868,98.921 168.998,111.024 144.716 C 117.662 131.398,128.258 123.152,145.152 118.155 C 147.327 117.512,148.131 116.985,150.581 114.600 C 158.166 107.217,162.601 104.032,170.612 100.217 C 176.235 97.538,177.013 97.247,181.800 96.024 C 190.752 93.738,197.139 93.211,206.400 93.997 M168.834 153.087 C 161.272 155.758,161.258 166.152,168.813 168.933 C 177.122 171.990,183.785 160.039,176.726 154.739 C 173.804 152.545,171.647 152.093,168.834 153.087 M225.200 153.469 C 218.031 156.563,218.958 167.060,226.589 169.197 C 230.648 170.333,235.712 167.187,236.698 162.915 C 238.216 156.336,231.447 150.774,225.200 153.469 M197.200 174.723 C 195.990 174.791,194.829 175.016,194.620 175.223 C 194.411 175.430,193.996 175.600,193.698 175.600 C 192.653 175.600,189.665 177.197,188.466 178.396 C 183.358 183.504,186.760 190.585,195.103 192.211 C 196.821 192.546,197.353 193.623,197.024 196.100 C 196.208 202.254,189.587 205.679,183.821 202.929 C 181.118 201.641,178.256 204.187,179.785 206.521 C 182.714 210.991,192.639 210.509,197.453 205.664 C 199.553 203.550,199.770 203.569,202.424 206.100 C 206.791 210.265,215.173 210.912,218.987 207.377 C 221.629 204.929,218.923 201.303,215.680 202.948 C 209.365 206.152,202.000 201.267,202.356 194.110 C 202.405 193.125,204.170 192.002,205.680 191.996 C 207.079 191.991,210.610 189.794,211.875 188.144 C 215.050 184.000,213.680 179.053,208.706 176.706 C 204.653 174.792,202.524 174.425,197.200 174.723 M158.485 215.700 C 165.192 221.089,171.339 224.465,179.200 227.075 C 182.815 228.275,186.370 229.094,190.400 229.656 C 193.963 230.152,209.954 229.860,212.000 229.261 C 212.770 229.036,214.660 228.547,216.200 228.175 C 218.829 227.540,221.547 226.696,224.800 225.504 C 229.086 223.934,236.270 219.687,240.766 216.066 C 244.163 213.330,244.129 213.316,248.591 219.200 C 249.675 220.630,250.664 221.890,250.788 222.000 C 251.136 222.310,255.327 228.695,257.122 231.651 C 260.649 237.460,263.589 244.680,265.245 251.600 C 266.373 256.313,265.597 267.719,264.109 268.290 C 263.588 268.490,262.191 267.733,261.137 266.679 C 258.720 264.263,255.265 264.973,254.595 268.023 C 254.202 269.814,255.347 271.582,258.512 274.071 C 265.365 279.460,266.293 280.422,267.983 283.886 C 271.647 291.402,268.257 300.563,260.139 305.079 C 255.253 307.797,237.627 307.506,232.194 304.617 C 223.959 300.238,222.317 296.157,222.090 279.501 L 221.929 267.602 220.911 266.801 C 219.803 265.930,217.996 265.760,216.778 266.412 C 214.982 267.373,214.800 268.552,214.800 279.256 C 214.800 289.191,215.044 291.939,216.318 296.346 C 217.378 300.014,218.408 299.785,200.339 299.905 C 181.913 300.027,182.648 300.166,183.696 296.746 C 185.113 292.122,185.200 291.143,185.200 279.775 L 185.200 268.244 184.125 267.122 C 182.707 265.642,180.568 265.582,179.058 266.981 L 178.000 267.962 178.000 279.082 C 178.000 295.697,176.047 300.442,167.298 305.077 C 162.390 307.677,144.512 307.510,139.229 304.815 C 127.926 299.048,127.462 285.051,138.299 276.732 C 139.540 275.780,141.196 274.416,141.978 273.702 C 142.760 272.988,143.520 272.403,143.667 272.402 C 143.814 272.401,144.309 271.794,144.767 271.053 C 147.717 266.281,142.607 263.232,138.335 267.215 C 137.400 268.087,136.415 268.800,136.146 268.800 C 134.570 268.800,133.594 256.416,134.760 251.200 C 136.349 244.088,142.248 230.660,144.776 228.400 C 144.899 228.290,145.883 226.850,146.962 225.200 C 150.169 220.296,155.345 214.000,156.170 214.000 C 156.279 214.000,157.321 214.765,158.485 215.700 " stroke="none" fill="#283047" fill-rule="evenodd"></path><path id="path1" d="M191.978 94.956 C 191.862 95.072,190.424 95.359,188.783 95.593 C 187.142 95.827,185.170 96.182,184.400 96.383 C 182.014 97.004,174.632 99.328,174.000 99.657 C 173.670 99.828,172.410 100.428,171.200 100.990 C 169.990 101.551,168.100 102.546,167.000 103.200 C 165.900 103.854,164.730 104.513,164.400 104.665 C 162.719 105.435,155.968 110.821,152.584 114.090 C 148.584 117.956,147.391 118.698,143.400 119.801 C 139.369 120.915,131.934 124.011,130.200 125.297 C 129.980 125.460,128.360 126.649,126.600 127.938 C 120.006 132.770,115.030 138.649,111.991 145.200 C 111.532 146.190,110.990 147.360,110.786 147.800 C 109.359 150.887,108.184 155.654,107.563 160.876 C 106.621 168.804,108.643 177.505,113.086 184.650 C 114.415 186.788,119.287 192.000,119.955 192.000 C 120.163 192.000,120.393 192.142,120.467 192.316 C 120.664 192.782,124.729 195.200,125.317 195.200 C 125.595 195.200,126.177 195.447,126.611 195.748 C 128.277 196.904,135.919 197.530,139.175 196.777 C 141.870 196.153,141.740 196.242,141.277 195.339 C 140.367 193.565,139.600 191.519,139.600 190.866 C 139.600 190.478,139.439 189.989,139.242 189.780 C 139.045 189.571,138.672 188.500,138.413 187.400 C 135.651 175.688,137.026 166.458,141.538 166.413 C 145.308 166.376,146.800 168.932,146.800 175.427 C 146.800 200.686,171.055 222.000,199.800 222.000 C 204.558 222.000,210.489 221.244,214.146 220.171 C 215.216 219.857,216.421 219.600,216.822 219.600 C 217.224 219.600,217.664 219.420,217.800 219.200 C 217.936 218.980,218.324 218.800,218.663 218.800 C 219.345 218.800,220.900 218.162,224.800 216.283 C 242.165 207.915,252.620 193.039,253.391 175.600 C 253.657 169.595,254.026 168.297,255.773 167.217 C 258.594 165.473,261.850 166.806,262.766 170.079 C 263.312 172.030,262.700 184.291,261.991 185.617 C 261.776 186.019,261.599 186.764,261.598 187.274 C 261.596 187.783,261.326 188.716,260.998 189.346 C 260.669 189.976,260.400 190.843,260.400 191.272 C 260.400 191.701,260.180 192.446,259.912 192.926 C 259.643 193.407,259.222 194.363,258.976 195.051 L 258.528 196.303 260.588 196.797 C 264.724 197.789,273.474 196.444,275.529 194.500 C 275.819 194.225,276.253 194.000,276.492 194.000 C 277.516 194.000,285.200 187.269,285.200 186.371 C 285.200 186.199,285.425 185.819,285.700 185.527 C 286.331 184.858,287.914 182.145,288.517 180.700 C 288.769 180.095,289.116 179.600,289.288 179.600 C 289.459 179.600,289.600 179.184,289.600 178.676 C 289.600 178.169,289.864 177.404,290.187 176.976 C 290.510 176.549,290.780 175.727,290.787 175.149 C 290.794 174.571,291.095 173.401,291.456 172.549 C 292.956 169.005,292.163 156.015,290.157 151.286 C 289.851 150.564,289.600 149.777,289.600 149.539 C 289.600 149.101,286.406 142.473,285.492 141.014 C 282.120 135.631,276.579 129.965,271.361 126.564 C 266.554 123.430,256.924 119.200,254.596 119.200 C 253.053 119.200,250.774 117.652,246.991 114.034 C 240.084 107.430,231.594 101.664,226.134 99.870 C 225.730 99.737,224.680 99.340,223.800 98.987 C 221.077 97.895,216.586 96.677,211.800 95.732 C 208.703 95.120,192.450 94.484,191.978 94.956 M176.386 153.199 C 184.485 158.428,180.271 170.943,170.619 170.329 C 167.449 170.127,165.102 168.612,163.300 165.605 C 158.346 157.338,168.252 147.946,176.386 153.199 M233.240 153.025 C 240.084 157.346,239.484 166.257,232.122 169.631 C 227.978 171.530,223.641 170.143,220.422 165.889 C 218.944 163.936,218.979 156.400,220.466 156.400 C 220.650 156.400,220.800 156.196,220.800 155.946 C 220.800 155.443,222.340 153.920,223.846 152.933 C 226.237 151.366,230.681 151.410,233.240 153.025 M203.318 173.797 C 217.157 176.445,218.960 188.892,206.100 193.001 L 203.600 193.800 203.600 195.538 C 203.600 200.947,208.918 204.137,214.713 202.204 C 221.986 199.779,223.992 207.176,216.767 209.782 C 211.502 211.681,205.326 210.424,201.391 206.653 L 199.532 204.872 198.137 206.417 C 192.715 212.419,179.352 211.886,178.514 205.635 C 178.051 202.182,180.892 200.896,185.638 202.412 C 190.387 203.929,194.298 201.760,195.809 196.771 C 196.640 194.024,196.620 193.990,193.600 192.966 C 184.254 189.800,182.103 181.587,189.261 176.401 C 190.174 175.741,191.165 175.200,191.465 175.200 C 191.765 175.200,192.323 175.016,192.705 174.790 C 193.422 174.367,197.984 173.311,199.400 173.240 C 199.840 173.218,201.603 173.469,203.318 173.797 M329.949 215.500 C 329.864 217.328,330.005 219.739,330.209 219.942 C 330.314 220.047,330.400 218.843,330.400 217.267 C 330.400 214.534,330.056 213.187,329.949 215.500 M154.757 217.103 C 152.533 219.603,150.624 222.028,150.239 222.839 C 150.040 223.257,149.725 223.600,149.539 223.600 C 149.352 223.600,149.200 223.855,149.200 224.167 C 149.200 224.478,149.065 224.793,148.900 224.867 C 148.735 224.940,147.988 225.900,147.239 227.000 C 146.491 228.100,145.665 229.180,145.404 229.400 C 143.737 230.806,138.239 242.486,136.460 248.400 C 134.780 253.986,135.165 268.315,136.960 266.986 C 137.246 266.774,138.255 266.015,139.200 265.300 C 143.405 262.121,148.561 266.234,146.170 270.859 C 145.492 272.169,144.656 272.961,140.000 276.703 C 134.102 281.442,132.363 283.886,131.624 288.474 C 130.686 294.294,134.382 301.485,139.488 303.776 C 140.320 304.149,141.432 304.667,141.961 304.927 C 142.627 305.255,146.182 305.400,153.561 305.400 L 164.200 305.400 166.908 304.032 C 170.181 302.379,172.931 299.830,174.523 296.972 C 176.489 293.439,176.522 293.195,176.685 280.600 C 176.771 273.980,177.020 268.152,177.240 267.600 C 178.719 263.886,184.536 264.311,185.970 268.238 C 187.207 271.623,186.601 295.159,185.242 296.518 C 183.413 298.347,183.833 298.400,200.000 298.400 L 215.200 298.400 215.200 297.461 C 215.200 296.945,214.897 295.916,214.527 295.174 C 213.958 294.033,213.848 292.376,213.814 284.413 C 213.736 266.246,213.994 265.200,218.559 265.200 C 223.167 265.200,223.565 266.441,223.553 280.754 C 223.542 293.384,223.601 293.739,226.497 298.200 C 228.061 300.609,231.602 303.599,233.600 304.198 C 234.150 304.363,234.853 304.701,235.161 304.949 C 235.546 305.258,239.065 305.400,246.361 305.400 L 257.000 305.400 259.322 304.260 C 263.266 302.325,266.019 299.143,267.954 294.281 C 269.885 289.434,267.310 282.483,261.997 278.200 C 260.633 277.100,259.084 275.840,258.555 275.400 C 258.026 274.960,256.892 274.060,256.036 273.400 C 249.888 268.663,255.059 261.128,261.361 265.641 C 264.136 267.628,263.900 267.852,264.466 262.675 C 265.132 256.577,264.288 250.252,261.980 244.040 C 260.166 239.154,255.643 230.569,254.521 229.880 C 254.234 229.704,254.000 229.299,254.000 228.980 C 254.000 228.661,253.861 228.400,253.692 228.400 C 253.522 228.400,252.941 227.590,252.400 226.600 C 251.859 225.610,251.278 224.800,251.108 224.800 C 250.939 224.800,250.800 224.530,250.800 224.200 C 250.800 223.870,250.632 223.600,250.427 223.600 C 250.222 223.600,249.950 223.285,249.823 222.900 C 249.696 222.515,249.099 221.635,248.496 220.945 C 247.893 220.255,246.627 218.779,245.681 217.665 C 243.818 215.469,243.402 215.411,241.600 217.092 C 240.390 218.220,234.815 221.993,232.600 223.182 C 231.720 223.655,230.730 224.192,230.400 224.377 C 229.821 224.700,228.484 225.302,225.306 226.670 C 224.478 227.026,223.487 227.471,223.105 227.659 C 222.723 227.846,222.093 228.001,221.705 228.002 C 221.317 228.004,220.484 228.274,219.854 228.602 C 219.224 228.931,218.267 229.200,217.728 229.200 C 217.189 229.200,216.365 229.405,215.898 229.655 C 215.431 229.905,213.868 230.265,212.424 230.455 C 210.981 230.646,208.810 230.968,207.600 231.171 C 204.699 231.660,194.386 231.646,191.600 231.150 C 190.390 230.935,188.320 230.627,187.000 230.465 C 185.680 230.303,184.207 229.952,183.726 229.685 C 183.246 229.418,182.436 229.194,181.926 229.187 C 180.947 229.173,178.007 228.185,173.800 226.454 C 171.588 225.545,165.200 222.212,165.200 221.967 C 165.200 221.813,164.750 221.574,164.200 221.436 C 163.650 221.298,163.200 221.008,163.200 220.792 C 163.200 220.577,163.006 220.400,162.770 220.400 C 162.533 220.400,161.254 219.545,159.927 218.500 C 155.809 215.256,156.285 215.385,154.757 217.103 M71.606 240.276 C 71.603 240.758,71.792 241.271,72.027 241.416 C 72.682 241.821,72.717 241.498,72.139 240.400 C 71.633 239.441,71.612 239.436,71.606 240.276 " stroke="none" fill="#f9e6d3" fill-rule="evenodd"></path><path id="path2" d="M196.520 94.698 C 198.455 94.772,201.515 94.771,203.320 94.697 C 205.124 94.623,203.540 94.563,199.800 94.564 C 196.060 94.564,194.584 94.625,196.520 94.698 M188.800 95.200 C 187.828 95.511,187.833 95.520,189.000 95.520 C 189.660 95.520,190.650 95.376,191.200 95.200 C 192.172 94.889,192.167 94.880,191.000 94.880 C 190.340 94.880,189.350 95.024,188.800 95.200 M208.400 95.200 C 208.950 95.376,209.940 95.520,210.600 95.520 C 211.767 95.520,211.772 95.511,210.800 95.200 C 210.250 95.024,209.260 94.880,208.600 94.880 C 207.433 94.880,207.428 94.889,208.400 95.200 M185.700 95.876 C 186.085 95.976,186.715 95.976,187.100 95.876 C 187.485 95.775,187.170 95.693,186.400 95.693 C 185.630 95.693,185.315 95.775,185.700 95.876 M213.200 96.001 C 216.651 96.763,217.557 96.841,215.800 96.224 C 214.920 95.914,213.660 95.668,213.000 95.677 C 211.828 95.692,211.832 95.699,213.200 96.001 M183.000 96.400 L 182.200 96.744 183.000 96.766 C 183.440 96.778,184.070 96.613,184.400 96.400 C 185.195 95.886,184.196 95.886,183.000 96.400 M177.704 97.897 C 173.621 99.370,174.366 99.476,178.648 98.032 C 180.602 97.373,181.840 96.838,181.400 96.843 C 180.960 96.848,179.297 97.322,177.704 97.897 M219.000 97.412 C 219.880 97.729,220.870 97.977,221.200 97.964 C 222.042 97.929,219.177 96.864,218.200 96.848 C 217.760 96.841,218.120 97.095,219.000 97.412 M222.800 98.600 C 223.350 98.914,224.070 99.171,224.400 99.170 C 224.730 99.169,224.394 98.906,223.654 98.584 C 221.951 97.845,221.494 97.853,222.800 98.600 M172.800 99.831 L 171.800 100.433 172.800 100.172 C 173.350 100.028,173.971 99.750,174.180 99.555 C 174.791 98.984,173.914 99.159,172.800 99.831 M225.400 99.600 C 225.536 99.820,225.862 100.001,226.124 100.002 C 226.386 100.004,227.122 100.277,227.760 100.610 C 228.397 100.942,229.008 101.126,229.116 101.017 C 229.225 100.909,228.463 100.456,227.423 100.010 C 225.271 99.087,225.056 99.044,225.400 99.600 M168.250 102.040 C 162.403 105.051,158.346 108.072,152.366 113.866 C 150.219 115.946,147.756 117.932,146.766 118.381 C 145.795 118.822,145.270 119.179,145.600 119.174 C 146.832 119.158,148.839 117.696,152.577 114.090 C 155.975 110.813,162.736 105.424,164.400 104.666 C 164.730 104.516,165.630 104.009,166.400 103.539 C 167.170 103.069,168.655 102.251,169.700 101.721 C 170.745 101.192,171.600 100.677,171.600 100.579 C 171.600 100.311,171.634 100.296,168.250 102.040 M229.633 101.358 C 229.725 101.445,230.700 102.009,231.800 102.611 C 232.900 103.213,235.060 104.523,236.600 105.521 C 240.225 107.871,240.437 107.981,239.219 106.876 C 237.491 105.310,228.094 99.900,229.633 101.358 M240.800 108.308 C 240.800 108.519,241.475 109.160,242.300 109.733 C 243.125 110.307,245.416 112.401,247.392 114.388 C 249.367 116.375,251.158 118.000,251.372 118.000 C 251.788 118.000,245.845 112.198,242.700 109.535 C 241.655 108.650,240.800 108.098,240.800 108.308 M252.220 118.372 C 252.429 118.576,253.140 118.855,253.800 118.991 C 254.996 119.239,254.995 119.237,253.654 118.620 C 252.119 117.913,251.672 117.835,252.220 118.372 M134.000 123.000 C 133.450 123.314,133.180 123.572,133.400 123.572 C 133.620 123.572,134.250 123.314,134.800 123.000 C 135.350 122.686,135.620 122.428,135.400 122.428 C 135.180 122.428,134.550 122.686,134.000 123.000 M269.469 125.232 C 269.966 125.833,272.400 127.364,272.400 127.076 C 272.400 126.983,271.635 126.402,270.700 125.785 C 269.765 125.168,269.211 124.920,269.469 125.232 M125.985 128.029 L 124.600 129.258 126.100 128.181 C 127.426 127.230,127.857 126.800,127.485 126.800 C 127.422 126.800,126.747 127.353,125.985 128.029 M274.022 128.300 C 274.034 128.465,274.619 129.038,275.322 129.574 L 276.600 130.549 275.425 129.274 C 274.203 127.949,273.985 127.797,274.022 128.300 M122.239 131.009 C 121.160 131.994,120.440 132.794,120.639 132.787 C 120.838 132.780,121.808 131.970,122.795 130.987 C 125.108 128.683,124.770 128.697,122.239 131.009 M278.800 132.600 C 279.995 133.810,281.063 134.800,281.173 134.800 C 281.283 134.800,280.395 133.810,279.200 132.600 C 278.005 131.390,276.937 130.400,276.827 130.400 C 276.717 130.400,277.605 131.390,278.800 132.600 M292.632 134.347 C 292.514 134.539,293.560 136.924,294.956 139.647 C 306.268 161.717,302.271 186.319,285.254 199.350 C 276.443 206.098,263.986 208.301,254.476 204.793 C 252.987 204.244,252.074 204.811,250.700 207.138 C 249.936 208.431,249.819 208.211,253.655 212.727 C 262.197 222.787,270.343 238.347,272.855 249.400 C 273.796 253.542,273.572 266.235,272.485 270.355 C 271.382 274.536,271.384 274.641,272.590 276.223 C 276.416 281.238,277.841 288.319,276.671 296.500 L 276.342 298.800 280.763 298.800 C 285.653 298.800,287.687 299.346,289.177 301.059 C 289.662 301.618,290.169 301.964,290.304 301.830 C 290.438 301.695,289.780 300.868,288.841 299.992 L 287.133 298.400 282.123 298.400 L 277.112 298.400 277.377 296.900 C 278.316 291.574,277.755 283.362,276.347 281.820 C 276.156 281.611,276.000 281.138,276.000 280.769 C 276.000 280.400,275.730 279.874,275.400 279.600 C 275.070 279.326,274.800 278.835,274.800 278.509 C 274.800 278.182,274.260 277.233,273.600 276.400 C 272.265 274.714,272.135 273.640,272.960 271.114 C 273.267 270.171,273.612 268.500,273.726 267.400 C 273.840 266.300,274.151 263.835,274.417 261.923 C 274.827 258.972,274.802 257.864,274.250 254.597 C 273.893 252.480,273.600 250.298,273.600 249.749 C 273.600 248.687,272.590 245.064,271.971 243.905 C 271.767 243.523,271.600 242.883,271.600 242.482 C 271.600 242.081,271.336 241.404,271.013 240.976 C 270.690 240.549,270.420 239.868,270.413 239.462 C 270.406 239.056,270.143 238.246,269.830 237.662 C 269.516 237.078,268.673 235.340,267.957 233.800 C 267.240 232.260,266.507 230.940,266.327 230.867 C 266.147 230.793,266.000 230.399,266.000 229.990 C 266.000 229.582,265.809 229.129,265.575 228.985 C 265.342 228.840,264.982 228.335,264.776 227.861 C 264.570 227.388,264.177 226.640,263.902 226.200 C 261.340 222.105,259.778 219.778,259.515 219.667 C 259.342 219.593,259.200 219.278,259.200 218.967 C 259.200 218.655,259.032 218.400,258.827 218.400 C 258.622 218.400,258.354 218.085,258.231 217.700 C 258.109 217.315,257.597 216.550,257.094 216.000 C 256.590 215.450,255.288 213.830,254.199 212.400 C 253.111 210.970,251.908 209.459,251.527 209.043 C 249.842 207.202,252.521 205.023,255.467 205.839 C 260.417 207.209,265.687 207.567,269.600 206.799 C 273.903 205.955,275.392 205.568,275.764 205.196 C 275.982 204.978,276.459 204.800,276.824 204.800 C 277.929 204.800,284.274 201.239,286.379 199.438 C 287.672 198.331,291.568 194.401,292.689 193.073 C 294.656 190.742,299.200 182.565,299.200 181.356 C 299.200 181.101,299.469 180.376,299.798 179.746 C 300.126 179.116,300.399 178.240,300.404 177.800 C 300.408 177.360,300.671 176.280,300.988 175.400 C 301.305 174.520,301.573 172.888,301.582 171.773 C 301.592 170.659,301.800 168.679,302.045 167.373 C 302.494 164.983,302.127 159.879,301.156 155.000 C 300.937 153.900,300.615 152.226,300.440 151.280 C 300.264 150.335,299.914 149.354,299.660 149.100 C 299.407 148.847,299.200 148.241,299.200 147.752 C 299.200 147.264,298.946 146.355,298.635 145.732 C 296.619 141.689,294.800 137.705,294.800 137.333 C 294.800 137.094,294.516 136.662,294.168 136.373 C 293.799 136.067,293.609 135.463,293.712 134.924 C 293.886 134.016,293.098 133.595,292.632 134.347 M105.200 136.600 C 105.200 137.370,105.065 138.000,104.900 138.000 C 104.735 138.000,104.004 139.305,103.276 140.900 C 102.548 142.495,101.693 144.310,101.376 144.932 C 101.059 145.555,100.794 146.455,100.787 146.932 C 100.780 147.410,100.510 148.149,100.187 148.576 C 99.864 149.004,99.600 149.913,99.600 150.596 C 99.600 151.280,99.415 152.025,99.188 152.252 C 97.451 153.989,97.460 175.220,99.199 176.959 C 99.420 177.180,99.606 177.909,99.613 178.580 C 99.620 179.251,99.890 180.149,100.213 180.576 C 100.536 181.004,100.800 181.619,100.800 181.945 C 100.800 182.586,103.166 187.672,103.617 188.000 C 103.768 188.110,104.019 188.605,104.173 189.100 C 104.328 189.595,104.622 190.000,104.827 190.000 C 105.032 190.000,105.200 190.276,105.200 190.613 C 105.200 190.949,105.470 191.329,105.800 191.455 C 106.130 191.582,106.400 191.848,106.400 192.046 C 106.400 193.021,113.816 200.400,114.797 200.400 C 115.018 200.400,115.201 200.535,115.203 200.700 C 115.204 200.865,115.789 201.334,116.503 201.741 C 120.727 204.154,122.034 204.800,122.698 204.800 C 123.106 204.800,123.618 204.978,123.836 205.196 C 124.208 205.568,125.697 205.955,130.000 206.799 C 132.312 207.253,137.288 207.253,139.600 206.799 C 143.816 205.972,145.343 205.579,145.794 205.205 C 147.427 203.850,149.107 208.566,147.529 210.073 C 146.995 210.583,145.676 212.170,144.597 213.600 C 143.519 215.030,142.527 216.290,142.392 216.400 C 142.147 216.600,139.354 220.676,138.600 221.933 C 138.380 222.300,138.110 222.690,138.000 222.800 C 137.721 223.079,136.876 224.446,136.393 225.400 C 136.170 225.840,135.640 226.740,135.215 227.400 C 134.492 228.522,131.383 234.709,130.191 237.400 C 128.732 240.693,128.400 241.571,128.400 242.137 C 128.400 242.476,128.220 242.864,128.000 243.000 C 127.780 243.136,127.600 243.576,127.600 243.978 C 127.600 244.379,127.347 245.584,127.037 246.654 C 126.272 249.300,125.183 256.548,125.183 259.000 C 125.183 261.452,126.272 268.700,127.037 271.346 C 127.823 274.064,127.755 274.682,126.485 276.342 C 125.872 277.144,125.036 278.520,124.626 279.400 C 124.217 280.280,123.744 281.288,123.575 281.641 C 122.120 284.670,121.614 292.704,122.599 297.100 L 122.891 298.400 118.007 298.400 C 113.051 298.400,110.800 298.976,110.800 300.243 C 110.800 300.502,110.530 300.818,110.200 300.945 C 109.870 301.071,109.603 301.496,109.606 301.887 C 109.610 302.418,109.942 302.226,110.906 301.134 C 112.795 298.994,113.449 298.800,118.774 298.800 C 121.428 298.800,123.597 298.665,123.593 298.500 C 123.589 298.335,123.317 296.580,122.988 294.600 C 121.905 288.072,123.977 279.780,127.712 275.703 L 128.533 274.807 127.596 271.103 C 122.931 252.656,130.031 231.844,148.478 209.902 C 149.607 208.558,149.685 208.306,149.230 207.456 C 148.220 205.569,146.753 204.318,145.852 204.576 C 141.554 205.807,140.097 206.079,136.715 206.282 C 106.432 208.098,88.812 172.385,104.258 140.497 C 105.459 138.018,106.331 135.813,106.197 135.595 C 105.685 134.767,105.200 135.255,105.200 136.600 M116.344 137.500 C 115.193 138.889,114.706 139.600,114.904 139.600 C 115.014 139.600,115.586 138.970,116.173 138.200 C 117.263 136.771,117.395 136.232,116.344 137.500 M284.000 138.800 C 284.470 139.460,284.944 140.000,285.054 140.000 C 285.164 140.000,284.870 139.460,284.400 138.800 C 283.930 138.140,283.456 137.600,283.346 137.600 C 283.236 137.600,283.530 138.140,284.000 138.800 M92.933 148.162 C 92.933 148.471,93.173 148.632,93.467 148.519 C 93.760 148.407,94.000 148.154,94.000 147.957 C 94.000 147.761,93.760 147.600,93.467 147.600 C 93.173 147.600,92.933 147.853,92.933 148.162 M289.630 149.600 C 289.628 150.176,290.757 152.466,290.786 151.946 C 290.794 151.806,290.537 151.086,290.216 150.346 C 289.894 149.606,289.631 149.270,289.630 149.600 M170.705 151.883 C 171.202 151.979,171.922 151.975,172.305 151.875 C 172.687 151.775,172.280 151.696,171.400 151.701 C 170.520 151.705,170.207 151.787,170.705 151.883 M227.700 151.876 C 228.085 151.976,228.715 151.976,229.100 151.876 C 229.485 151.775,229.170 151.693,228.400 151.693 C 227.630 151.693,227.315 151.775,227.700 151.876 M167.000 152.743 C 160.597 156.694,160.295 164.873,166.400 168.987 C 168.468 170.381,173.809 170.792,174.880 169.641 C 175.317 169.171,175.273 169.135,174.600 169.417 C 163.953 173.872,157.454 157.683,167.903 152.736 C 168.726 152.346,169.130 152.022,168.800 152.015 C 168.470 152.008,167.660 152.336,167.000 152.743 M174.000 152.286 C 174.330 152.408,174.960 152.674,175.400 152.876 C 176.187 153.238,176.188 153.234,175.424 152.622 C 174.996 152.280,174.366 152.014,174.024 152.032 C 173.485 152.059,173.482 152.093,174.000 152.286 M223.756 153.046 C 222.070 154.180,220.800 155.391,220.800 155.864 C 220.800 156.028,221.496 155.483,222.346 154.653 C 223.197 153.822,224.592 152.894,225.446 152.589 C 226.445 152.233,226.699 152.029,226.156 152.018 C 225.692 152.008,224.612 152.471,223.756 153.046 M232.200 152.953 C 238.439 155.903,239.482 163.357,234.279 167.811 C 233.386 168.575,232.829 169.200,233.040 169.200 C 234.904 169.200,238.000 164.083,238.000 161.000 C 238.000 157.023,234.030 151.987,230.908 152.004 C 230.519 152.006,231.100 152.433,232.200 152.953 M290.868 153.400 C 290.862 153.840,291.011 154.560,291.200 155.000 C 291.638 156.019,291.638 154.968,291.200 153.600 C 290.943 152.796,290.877 152.757,290.868 153.400 M177.904 154.976 C 178.842 156.047,179.771 157.480,179.968 158.161 C 180.206 158.980,180.340 159.129,180.362 158.600 C 180.405 157.600,178.427 154.572,177.154 153.690 C 176.591 153.299,176.898 153.826,177.904 154.976 M108.249 154.215 C 108.112 154.573,108.015 155.166,108.034 155.533 C 108.053 155.900,108.227 155.669,108.421 155.020 C 108.798 153.758,108.665 153.133,108.249 154.215 M219.824 157.447 C 219.455 158.917,219.748 159.004,220.283 157.585 C 220.529 156.933,220.586 156.400,220.409 156.400 C 220.232 156.400,219.968 156.871,219.824 157.447 M292.098 160.400 C 292.088 161.390,292.216 163.190,292.383 164.400 C 292.644 166.289,292.689 166.374,292.700 165.000 C 292.707 164.120,292.579 162.320,292.415 161.000 C 292.143 158.808,292.116 158.756,292.098 160.400 M219.127 159.900 C 219.035 160.285,219.083 161.140,219.233 161.800 C 219.467 162.832,219.512 162.734,219.553 161.100 C 219.601 159.155,219.423 158.654,219.127 159.900 M107.293 160.800 C 107.293 161.570,107.375 161.885,107.476 161.500 C 107.576 161.115,107.576 160.485,107.476 160.100 C 107.375 159.715,107.293 160.030,107.293 160.800 M180.501 161.000 C 180.505 161.880,180.587 162.193,180.683 161.695 C 180.779 161.198,180.775 160.478,180.675 160.095 C 180.575 159.713,180.496 160.120,180.501 161.000 M179.728 164.300 C 179.314 165.628,179.325 165.711,179.830 165.024 C 180.308 164.373,180.639 162.800,180.298 162.800 C 180.242 162.800,179.985 163.475,179.728 164.300 M219.646 163.811 C 219.410 167.937,229.355 172.578,232.099 169.622 C 232.512 169.177,232.460 169.141,231.800 169.417 C 227.431 171.245,221.006 168.213,219.894 163.800 C 219.695 163.009,219.692 163.009,219.646 163.811 M177.313 167.631 C 176.388 168.494,175.759 169.199,175.915 169.198 C 176.303 169.195,179.328 166.395,179.143 166.210 C 179.062 166.128,178.238 166.768,177.313 167.631 M139.568 167.100 C 139.118 167.696,139.122 167.725,139.599 167.300 C 142.179 165.000,145.978 168.042,146.043 172.460 C 146.131 178.398,146.675 180.757,146.741 175.484 C 146.823 168.919,145.366 166.400,141.487 166.400 C 140.633 166.400,139.894 166.669,139.568 167.100 M255.989 167.059 C 254.923 167.768,254.000 168.779,254.000 169.236 C 254.000 169.392,254.612 168.908,255.360 168.160 C 257.186 166.334,259.338 166.260,261.158 167.960 C 261.841 168.599,262.400 168.968,262.400 168.781 C 262.400 167.062,257.828 165.834,255.989 167.059 M292.114 168.600 C 292.117 169.700,292.195 170.103,292.287 169.495 C 292.379 168.886,292.377 167.986,292.282 167.495 C 292.187 167.003,292.111 167.500,292.114 168.600 M107.228 168.633 C 107.244 169.275,107.416 170.160,107.610 170.600 C 107.847 171.134,107.886 170.802,107.727 169.600 C 107.446 167.480,107.188 166.980,107.228 168.633 M253.676 170.600 C 253.336 173.812,253.309 180.383,253.644 178.200 C 253.847 176.880,253.957 174.450,253.887 172.800 C 253.818 171.150,253.723 170.160,253.676 170.600 M262.924 173.000 C 262.926 174.320,263.001 174.812,263.090 174.093 C 263.179 173.374,263.177 172.294,263.086 171.693 C 262.995 171.092,262.922 171.680,262.924 173.000 M196.444 173.745 C 194.416 174.173,194.593 174.200,199.444 174.200 C 206.994 174.200,211.410 176.155,213.637 180.484 C 215.529 184.163,213.273 189.384,208.886 191.478 C 208.163 191.822,207.652 192.186,207.751 192.285 C 208.437 192.971,212.815 189.288,213.903 187.109 C 217.720 179.466,207.263 171.461,196.444 173.745 M189.261 176.401 C 187.110 177.960,185.185 180.631,185.254 181.960 C 185.308 182.990,185.311 182.991,185.491 182.034 C 185.908 179.819,187.917 177.460,190.594 176.044 C 191.471 175.580,191.903 175.200,191.554 175.200 C 191.205 175.200,190.174 175.741,189.261 176.401 M137.340 178.800 C 137.340 180.670,137.409 181.435,137.493 180.500 C 137.577 179.565,137.577 178.035,137.493 177.100 C 137.409 176.165,137.340 176.930,137.340 178.800 M262.534 179.200 C 262.534 180.850,262.605 181.525,262.691 180.700 C 262.778 179.875,262.778 178.525,262.691 177.700 C 262.605 176.875,262.534 177.550,262.534 179.200 M146.833 181.600 C 146.822 182.150,147.067 183.410,147.379 184.400 C 148.112 186.726,148.137 185.221,147.409 182.600 C 147.060 181.341,146.846 180.971,146.833 181.600 M252.500 182.939 C 251.803 185.548,251.925 186.624,252.650 184.264 C 252.977 183.200,253.190 182.045,253.122 181.698 C 253.055 181.351,252.775 181.910,252.500 182.939 M185.246 185.353 C 185.120 187.400,190.042 192.454,192.092 192.382 C 192.371 192.373,191.880 191.992,191.000 191.536 C 188.382 190.181,186.049 187.573,185.491 185.378 C 185.304 184.643,185.290 184.642,185.246 185.353 M148.016 186.629 C 147.863 190.803,155.450 202.437,162.234 208.433 C 167.120 212.752,178.150 219.217,179.731 218.690 C 179.982 218.606,179.290 218.201,178.194 217.790 C 166.825 213.529,155.933 203.656,150.806 192.966 C 149.923 191.123,149.200 189.453,149.200 189.254 C 149.200 188.714,148.034 186.130,148.016 186.629 M251.270 187.570 C 250.606 189.474,250.714 190.070,251.426 188.430 C 251.753 187.677,251.957 186.872,251.880 186.641 C 251.803 186.410,251.529 186.829,251.270 187.570 M248.850 193.343 C 247.954 195.211,247.036 196.854,246.811 196.993 C 246.585 197.133,246.406 197.462,246.413 197.724 C 246.420 197.986,246.707 197.840,247.051 197.400 C 247.883 196.336,250.848 190.314,250.641 190.108 C 250.552 190.019,249.746 191.474,248.850 193.343 M192.800 192.562 C 192.800 192.652,193.610 193.001,194.600 193.338 C 196.722 194.061,197.008 193.813,195.013 192.980 C 193.641 192.406,192.800 192.248,192.800 192.562 M204.800 192.964 C 203.496 193.433,203.398 193.588,203.367 195.234 L 203.335 197.000 203.489 195.300 C 203.587 194.229,203.841 193.600,204.176 193.600 C 204.469 193.600,205.314 193.337,206.054 193.016 C 207.693 192.304,206.745 192.265,204.800 192.964 M195.883 196.463 C 195.729 197.047,195.501 197.857,195.376 198.263 C 195.251 198.668,195.442 198.495,195.799 197.877 C 196.157 197.259,196.385 196.449,196.307 196.077 C 196.206 195.602,196.080 195.717,195.883 196.463 M134.105 197.487 C 134.714 197.579,135.614 197.577,136.105 197.482 C 136.597 197.387,136.100 197.311,135.000 197.314 C 133.900 197.317,133.497 197.395,134.105 197.487 M263.900 197.482 C 264.395 197.578,265.205 197.578,265.700 197.482 C 266.195 197.387,265.790 197.309,264.800 197.309 C 263.810 197.309,263.405 197.387,263.900 197.482 M203.600 197.847 C 203.600 198.067,203.864 198.596,204.187 199.024 C 204.510 199.451,204.775 199.620,204.775 199.400 C 204.775 199.180,204.510 198.651,204.187 198.224 C 203.864 197.796,203.600 197.627,203.600 197.847 M244.361 200.700 C 239.798 206.746,232.907 212.286,225.099 216.183 C 223.834 216.815,222.870 217.404,222.958 217.492 C 223.249 217.782,228.540 214.922,232.361 212.409 C 236.317 209.806,242.805 203.655,245.132 200.300 C 246.965 197.657,246.458 197.920,244.361 200.700 M193.869 200.395 C 192.867 201.457,191.436 202.308,189.600 202.933 C 189.143 203.088,189.171 203.144,189.720 203.168 C 191.088 203.228,193.315 201.785,194.761 199.900 C 195.599 198.807,195.114 199.077,193.869 200.395 M205.245 200.654 C 206.152 201.747,208.728 203.202,209.692 203.166 C 210.507 203.135,210.488 203.097,209.506 202.802 C 208.063 202.367,205.600 200.832,205.600 200.367 C 205.600 200.165,205.398 200.000,205.151 200.000 C 204.857 200.000,204.890 200.226,205.245 200.654 M179.569 202.769 C 178.712 203.626,178.412 204.294,178.446 205.269 L 178.492 206.600 178.787 205.073 C 179.172 203.083,179.985 202.320,182.085 201.979 L 183.800 201.700 182.269 201.650 C 181.072 201.611,180.484 201.855,179.569 202.769 M217.564 201.954 C 223.327 202.989,221.244 208.633,214.600 209.986 C 213.505 210.209,213.316 210.327,214.000 210.358 C 220.627 210.662,224.257 202.225,217.696 201.769 L 215.800 201.637 217.564 201.954 M185.000 202.614 C 185.660 202.917,186.560 203.164,187.000 203.164 C 187.440 203.165,187.080 202.905,186.200 202.588 C 184.192 201.865,183.400 201.882,185.000 202.614 M214.000 202.400 C 213.670 202.613,212.950 202.815,212.400 202.848 C 211.581 202.898,211.548 202.938,212.215 203.071 C 212.663 203.160,213.653 202.963,214.415 202.632 C 215.177 202.302,215.530 202.027,215.200 202.022 C 214.870 202.017,214.330 202.187,214.000 202.400 M198.813 205.176 C 198.582 205.608,197.375 206.690,196.131 207.581 C 194.887 208.471,194.052 209.200,194.275 209.200 C 194.893 209.200,197.772 207.016,198.686 205.853 L 199.499 204.821 201.017 206.310 C 202.671 207.933,204.392 209.193,204.960 209.197 C 205.158 209.199,204.618 208.686,203.760 208.059 C 202.902 207.431,201.842 206.514,201.404 206.022 C 200.085 204.536,199.294 204.277,198.813 205.176 M178.860 207.179 C 179.070 207.810,181.101 209.449,181.331 209.173 C 181.411 209.078,180.844 208.462,180.072 207.803 C 179.300 207.145,178.755 206.864,178.860 207.179 M182.235 209.556 C 182.474 209.816,183.374 210.109,184.235 210.208 C 185.637 210.368,185.675 210.350,184.600 210.043 C 183.940 209.854,183.040 209.560,182.600 209.391 C 181.996 209.158,181.906 209.198,182.235 209.556 M192.687 209.446 C 192.551 209.582,191.846 209.849,191.120 210.039 C 189.834 210.377,189.840 210.382,191.365 210.208 C 192.769 210.048,194.436 209.200,193.347 209.200 C 193.119 209.200,192.822 209.311,192.687 209.446 M205.835 209.556 C 206.074 209.816,206.974 210.109,207.835 210.208 C 209.237 210.368,209.275 210.350,208.200 210.043 C 207.540 209.854,206.640 209.560,206.200 209.391 C 205.596 209.158,205.506 209.198,205.835 209.556 M186.700 210.682 C 187.195 210.778,188.005 210.778,188.500 210.682 C 188.995 210.587,188.590 210.509,187.600 210.509 C 186.610 210.509,186.205 210.587,186.700 210.682 M210.705 210.683 C 211.202 210.779,211.922 210.775,212.305 210.675 C 212.687 210.575,212.280 210.496,211.400 210.501 C 210.520 210.505,210.207 210.587,210.705 210.683 M154.454 216.634 C 151.432 220.067,144.583 229.600,145.138 229.600 C 145.319 229.600,146.172 228.565,147.034 227.300 C 147.895 226.035,148.735 224.940,148.900 224.867 C 149.065 224.793,149.200 224.478,149.200 224.167 C 149.200 223.855,149.352 223.600,149.539 223.600 C 149.725 223.600,150.040 223.257,150.239 222.839 C 150.650 221.971,152.737 219.338,154.801 217.082 L 156.202 215.551 159.201 217.965 C 160.850 219.292,162.425 220.383,162.700 220.389 C 162.975 220.395,163.200 220.577,163.200 220.792 C 163.200 221.008,163.650 221.298,164.200 221.436 C 164.750 221.574,165.200 221.813,165.200 221.967 C 165.200 222.212,171.588 225.545,173.800 226.454 C 177.939 228.157,180.948 229.175,181.800 229.161 C 182.240 229.154,180.883 228.560,178.785 227.841 C 171.711 225.418,162.692 220.423,157.746 216.188 L 156.092 214.773 154.454 216.634 M239.326 218.174 C 235.181 221.291,225.187 226.775,223.582 226.814 C 222.651 226.837,220.839 227.968,221.705 227.986 C 222.093 227.994,222.723 227.846,223.105 227.659 C 223.773 227.331,225.427 226.599,228.400 225.316 C 229.170 224.984,230.070 224.561,230.400 224.377 C 230.730 224.192,231.720 223.655,232.600 223.182 C 234.815 221.993,240.390 218.220,241.600 217.092 C 243.402 215.411,243.818 215.469,245.681 217.665 C 246.627 218.779,247.893 220.255,248.496 220.945 C 249.099 221.635,249.696 222.515,249.823 222.900 C 249.950 223.285,250.222 223.600,250.427 223.600 C 250.632 223.600,250.800 223.870,250.800 224.200 C 250.800 224.530,250.939 224.800,251.108 224.800 C 251.278 224.800,251.859 225.610,252.400 226.600 C 252.941 227.590,253.522 228.400,253.692 228.400 C 253.861 228.400,254.000 228.661,254.000 228.980 C 254.000 229.299,254.241 229.704,254.536 229.880 C 254.831 230.056,255.573 231.063,256.185 232.118 C 256.797 233.173,257.389 233.944,257.502 233.831 C 257.920 233.413,248.167 219.571,245.094 216.221 L 243.800 214.810 239.326 218.174 M220.400 218.233 C 219.844 218.542,219.667 218.785,220.000 218.780 C 220.330 218.775,221.050 218.514,221.600 218.200 C 222.150 217.886,222.330 217.640,222.000 217.653 C 221.670 217.667,220.950 217.928,220.400 218.233 M180.400 218.983 C 180.400 219.272,186.054 220.880,186.279 220.655 C 186.390 220.544,185.698 220.255,184.740 220.013 C 183.783 219.771,182.587 219.399,182.081 219.186 C 181.094 218.771,180.400 218.687,180.400 218.983 M214.456 220.059 C 213.717 220.272,213.203 220.536,213.314 220.647 C 213.425 220.758,214.390 220.580,215.458 220.252 C 217.569 219.604,216.653 219.427,214.456 220.059 M189.400 221.424 C 190.720 221.721,192.340 221.955,193.000 221.943 C 193.705 221.931,193.127 221.700,191.600 221.385 C 188.207 220.686,186.278 220.719,189.400 221.424 M207.800 221.408 C 205.899 221.808,205.691 221.917,206.800 221.931 C 207.570 221.941,209.280 221.705,210.600 221.408 C 212.436 220.994,212.671 220.871,211.600 220.885 C 210.830 220.895,209.120 221.130,207.800 221.408 M197.500 222.295 C 198.655 222.376,200.545 222.376,201.700 222.295 C 202.855 222.214,201.910 222.148,199.600 222.148 C 197.290 222.148,196.345 222.214,197.500 222.295 M218.000 228.625 C 216.702 229.116,216.676 229.156,217.654 229.177 C 218.234 229.190,219.224 228.931,219.854 228.602 C 221.327 227.834,220.049 227.850,218.000 228.625 M184.000 229.764 C 184.550 230.098,185.810 230.356,186.800 230.336 L 188.600 230.300 187.000 229.976 C 186.120 229.797,184.860 229.540,184.200 229.404 L 183.000 229.156 184.000 229.764 M214.259 229.474 C 214.108 229.625,213.223 229.872,212.293 230.024 L 210.600 230.300 212.400 230.332 C 213.390 230.350,214.740 230.117,215.400 229.814 L 216.600 229.265 215.567 229.232 C 214.998 229.215,214.410 229.323,214.259 229.474 M143.908 230.900 C 142.872 232.498,142.310 233.703,142.719 233.450 C 143.126 233.198,144.907 230.000,144.640 230.000 C 144.558 230.000,144.229 230.405,143.908 230.900 M189.800 230.884 C 190.904 231.596,208.146 231.589,209.600 230.875 C 210.442 230.462,210.190 230.433,208.000 230.692 C 204.616 231.093,194.920 231.088,191.600 230.684 C 189.406 230.416,189.125 230.448,189.800 230.884 M140.618 236.818 C 139.838 238.421,139.275 239.808,139.366 239.900 C 139.458 239.991,140.168 238.752,140.945 237.145 C 141.722 235.539,142.286 234.153,142.197 234.064 C 142.109 233.976,141.398 235.215,140.618 236.818 M257.680 234.700 C 260.045 239.543,261.625 243.025,262.213 244.691 C 262.619 245.841,263.027 246.706,263.119 246.614 C 263.551 246.183,258.382 234.400,257.762 234.400 C 257.636 234.400,257.599 234.535,257.680 234.700 M137.870 243.018 C 136.434 246.774,136.528 247.289,138.013 243.806 C 138.668 242.270,139.145 240.834,139.072 240.616 C 138.999 240.397,138.458 241.478,137.870 243.018 M136.229 247.829 C 136.081 248.415,136.051 248.984,136.161 249.094 C 136.271 249.204,136.481 248.815,136.629 248.229 C 136.776 247.642,136.806 247.073,136.696 246.963 C 136.586 246.853,136.376 247.242,136.229 247.829 M263.405 248.200 C 264.734 255.365,264.927 257.893,264.484 262.351 C 263.949 267.735,264.026 267.609,262.111 266.198 L 260.600 265.085 261.864 266.399 C 263.609 268.213,264.179 267.828,264.735 264.460 C 265.555 259.494,264.965 251.052,263.577 247.897 C 263.234 247.116,263.212 247.155,263.405 248.200 M135.266 252.702 C 134.676 256.578,134.671 260.270,135.249 264.284 C 135.806 268.152,135.978 268.340,137.651 266.902 C 141.406 263.675,144.164 263.636,145.793 266.787 C 147.248 269.600,146.346 271.080,140.106 276.114 C 133.711 281.275,131.153 284.941,131.257 288.800 C 131.290 290.057,131.327 290.007,131.612 288.312 C 132.352 283.919,134.196 281.367,140.000 276.703 C 144.656 272.961,145.492 272.169,146.170 270.859 C 148.561 266.234,143.405 262.121,139.200 265.300 C 138.255 266.015,137.246 266.774,136.960 266.986 C 135.705 267.915,134.909 260.445,135.589 254.128 C 136.126 249.141,135.936 248.302,135.266 252.702 M256.012 264.512 C 251.934 266.575,252.770 272.000,257.559 274.540 C 257.912 274.727,257.358 274.139,256.329 273.234 C 251.757 269.210,254.541 262.317,259.726 264.822 C 260.570 265.230,260.574 265.223,259.824 264.622 C 258.890 263.874,257.359 263.830,256.012 264.512 M178.301 266.212 C 177.700 266.768,177.124 267.623,177.019 268.112 C 176.759 269.325,176.548 292.785,176.799 292.534 C 176.910 292.424,177.090 286.787,177.200 280.008 C 177.417 266.623,177.431 266.548,179.800 265.578 C 180.330 265.361,180.396 265.242,179.996 265.225 C 179.664 265.211,178.901 265.655,178.301 266.212 M183.880 265.983 C 185.775 267.139,185.992 268.589,186.071 280.601 C 186.116 287.546,186.268 290.977,186.505 290.357 C 187.012 289.022,186.610 270.165,186.034 268.318 C 185.589 266.889,183.968 265.198,183.046 265.201 C 182.801 265.202,183.176 265.554,183.880 265.983 M215.332 266.228 C 214.337 267.150,214.215 267.550,214.149 270.128 L 214.075 273.000 214.338 270.341 C 214.609 267.595,215.361 266.249,217.000 265.578 C 217.651 265.312,217.673 265.246,217.121 265.225 C 216.747 265.211,215.942 265.663,215.332 266.228 M220.245 265.592 C 222.613 266.549,222.797 267.353,222.840 276.954 C 222.862 281.819,223.008 287.330,223.164 289.200 C 223.359 291.520,223.467 288.929,223.505 281.040 C 223.569 267.755,222.989 265.108,220.039 265.225 C 219.594 265.243,219.657 265.355,220.245 265.592 M258.400 275.121 C 258.400 275.326,259.075 275.943,259.900 276.493 C 262.293 278.088,265.808 281.675,266.588 283.318 C 266.982 284.149,267.384 284.749,267.482 284.651 C 267.747 284.387,266.573 282.267,265.370 280.837 C 264.024 279.238,258.400 274.625,258.400 275.121 M213.754 283.600 C 213.754 286.350,213.818 287.475,213.896 286.100 C 213.974 284.725,213.974 282.475,213.896 281.100 C 213.818 279.725,213.754 280.850,213.754 283.600 M267.817 286.000 C 269.587 292.502,267.280 298.788,261.635 302.844 C 259.230 304.572,259.173 304.932,261.541 303.437 C 267.052 299.958,270.777 289.901,268.072 285.800 C 267.576 285.047,267.561 285.059,267.817 286.000 M214.144 292.087 C 214.189 294.088,214.405 295.355,214.757 295.687 C 215.211 296.115,215.253 296.002,215.013 295.000 C 214.855 294.340,214.579 292.720,214.400 291.400 L 214.073 289.000 214.144 292.087 M131.247 292.509 C 131.175 294.825,133.201 298.855,135.676 301.317 C 137.642 303.274,141.410 305.524,141.899 305.034 C 142.016 304.918,141.591 304.634,140.955 304.403 C 136.328 302.723,132.468 297.965,131.612 292.888 C 131.299 291.029,131.293 291.023,131.247 292.509 M185.667 292.840 C 185.630 293.412,185.399 294.457,185.154 295.161 C 184.908 295.865,184.813 296.547,184.943 296.676 C 185.374 297.107,186.041 294.665,185.887 293.223 C 185.780 292.224,185.714 292.110,185.667 292.840 M223.600 293.251 C 223.600 294.140,226.096 298.751,227.073 299.666 C 227.803 300.351,227.647 299.959,226.486 298.200 C 225.614 296.880,224.685 295.125,224.420 294.300 C 223.943 292.816,223.600 292.377,223.600 293.251 M175.644 294.444 C 175.062 296.114,175.341 296.392,176.000 294.800 C 176.279 294.126,176.414 293.481,176.300 293.367 C 176.186 293.253,175.891 293.738,175.644 294.444 M174.382 297.234 C 173.888 298.157,172.615 299.717,171.429 300.853 C 171.005 301.259,170.759 301.692,170.882 301.815 C 171.159 302.092,173.863 298.991,174.644 297.500 C 174.961 296.895,175.132 296.400,175.024 296.400 C 174.916 296.400,174.627 296.775,174.382 297.234 M215.228 297.500 L 215.200 298.400 200.029 298.400 C 185.917 298.400,184.846 298.351,184.676 297.700 C 184.538 297.173,184.481 297.223,184.446 297.900 L 184.400 298.800 199.976 298.800 C 215.900 298.800,216.133 298.779,215.578 297.400 C 215.273 296.641,215.255 296.646,215.228 297.500 M229.320 301.983 C 230.535 303.050,234.319 305.200,234.982 305.200 C 235.651 305.200,234.692 304.460,233.704 304.214 C 233.097 304.063,231.663 303.233,230.517 302.369 C 228.058 300.516,227.412 300.308,229.320 301.983 M169.780 302.373 C 169.571 302.579,168.320 303.292,167.000 303.957 C 165.680 304.623,164.808 305.175,165.063 305.184 C 165.715 305.207,169.501 303.201,170.046 302.545 C 170.557 301.929,170.361 301.803,169.780 302.373 M144.000 305.670 C 146.371 306.026,160.964 306.031,162.955 305.677 C 163.811 305.525,159.491 305.400,153.355 305.400 C 147.220 305.400,143.010 305.522,144.000 305.670 M237.400 305.665 C 240.065 306.018,253.790 306.027,255.752 305.677 C 256.606 305.525,252.376 305.400,246.352 305.400 C 240.328 305.400,236.300 305.519,237.400 305.665 M117.493 308.800 C 117.116 309.240,116.997 309.600,117.228 309.600 C 117.458 309.600,117.512 309.825,117.347 310.100 C 117.163 310.405,117.325 310.374,117.762 310.019 C 118.708 309.251,120.149 309.021,119.766 309.699 C 119.539 310.100,119.590 310.100,120.021 309.700 C 120.683 309.085,129.103 309.013,130.000 309.614 C 130.420 309.896,129.402 310.007,126.600 309.983 C 124.400 309.965,122.375 309.962,122.100 309.975 C 121.825 309.989,121.600 310.429,121.600 310.954 C 121.600 312.029,120.185 313.126,119.100 312.892 C 118.715 312.809,118.400 312.449,118.400 312.091 C 118.400 311.110,117.609 312.056,117.382 313.309 C 117.278 313.881,117.382 314.466,117.613 314.608 C 117.844 314.751,117.928 315.197,117.800 315.600 C 117.672 316.003,117.753 316.447,117.979 316.587 C 118.233 316.744,118.290 316.578,118.127 316.155 C 117.949 315.689,118.015 315.562,118.332 315.758 C 118.954 316.142,118.931 315.499,118.300 314.830 C 117.896 314.402,117.916 314.337,118.400 314.490 C 118.804 314.618,118.979 315.148,118.935 316.114 C 118.884 317.228,119.001 317.498,119.458 317.323 C 119.781 317.198,119.948 316.841,119.828 316.528 C 119.703 316.204,119.785 316.067,120.015 316.209 C 120.239 316.347,120.395 316.672,120.363 316.930 C 120.239 317.939,120.428 318.349,121.100 318.526 C 121.485 318.628,121.325 318.693,120.745 318.672 C 119.986 318.644,119.744 318.459,119.882 318.016 C 120.028 317.551,119.985 317.526,119.706 317.914 C 119.496 318.205,119.004 318.318,118.568 318.176 C 118.000 317.990,117.942 318.026,118.345 318.314 C 118.645 318.528,118.735 318.785,118.545 318.886 C 118.355 318.987,118.420 319.016,118.688 318.951 C 118.957 318.887,119.484 319.141,119.860 319.517 C 120.236 319.893,120.691 320.223,120.871 320.250 C 121.052 320.278,121.312 320.322,121.449 320.350 C 121.586 320.378,121.511 320.625,121.283 320.900 C 120.951 321.300,136.739 321.400,199.996 321.400 C 243.516 321.400,279.006 321.310,278.862 321.200 C 278.718 321.090,278.600 320.730,278.600 320.400 C 278.600 320.031,278.200 319.785,277.560 319.760 C 276.987 319.739,276.325 319.601,276.087 319.454 C 275.850 319.307,275.542 319.370,275.404 319.593 C 275.030 320.198,124.800 320.156,124.800 319.551 C 124.800 319.244,124.608 319.262,124.191 319.608 C 123.693 320.021,123.621 320.012,123.795 319.557 C 123.977 319.083,135.488 319.014,200.644 319.093 C 250.582 319.154,277.536 319.048,278.018 318.790 C 278.583 318.488,278.854 318.561,279.166 319.097 C 279.533 319.727,279.577 319.706,279.588 318.900 C 279.595 318.405,279.960 317.640,280.400 317.200 C 281.367 316.233,281.475 316.633,280.529 317.678 C 279.714 318.579,280.345 319.470,281.473 319.010 C 282.158 318.731,282.154 318.695,281.400 318.385 C 280.627 318.067,280.629 318.055,281.467 318.028 C 281.943 318.013,282.412 318.225,282.509 318.500 C 282.605 318.775,282.688 318.502,282.692 317.893 C 282.696 317.284,282.512 316.669,282.282 316.527 C 282.021 316.366,281.963 316.527,282.127 316.955 C 282.277 317.345,282.228 317.541,282.013 317.408 C 281.806 317.280,281.722 316.506,281.828 315.687 C 281.934 314.869,282.055 313.898,282.096 313.529 C 282.138 313.161,282.313 312.946,282.486 313.053 C 282.659 313.160,282.800 312.907,282.800 312.490 C 282.800 312.074,282.538 311.733,282.218 311.733 C 281.897 311.733,281.728 311.883,281.841 312.067 C 281.955 312.250,281.888 312.400,281.693 312.400 C 281.498 312.400,281.418 312.940,281.515 313.600 C 281.612 314.260,281.515 314.800,281.300 314.800 C 281.085 314.800,280.930 314.310,280.955 313.712 C 280.987 312.927,280.723 312.486,280.006 312.129 C 278.805 311.529,278.196 309.764,279.074 309.427 C 280.171 309.006,280.936 309.154,280.483 309.700 C 280.255 309.975,280.035 310.380,279.994 310.600 C 279.953 310.820,279.745 310.951,279.530 310.890 C 279.316 310.830,279.255 310.965,279.394 311.190 C 279.799 311.846,280.227 311.671,280.791 310.617 C 281.241 309.776,281.438 309.699,282.158 310.083 C 282.926 310.492,282.950 310.471,282.430 309.840 C 281.908 309.208,281.954 309.173,282.973 309.429 C 284.013 309.690,284.056 309.652,283.629 308.854 C 283.191 308.035,282.902 308.000,276.569 308.000 L 269.966 308.000 267.883 309.550 C 261.634 314.201,259.920 314.600,246.200 314.600 C 233.008 314.600,231.053 314.135,224.984 309.553 L 222.927 308.000 200.072 308.000 L 177.216 308.000 175.108 309.597 C 172.038 311.922,168.984 313.425,165.762 314.198 C 161.809 315.145,142.377 314.884,139.671 313.846 C 136.702 312.709,133.876 311.156,131.848 309.548 L 129.895 308.000 124.037 308.000 C 118.673 308.000,118.120 308.068,117.493 308.800 M222.900 309.707 C 222.714 310.277,177.200 310.267,177.200 309.697 C 177.200 309.297,181.912 309.215,200.100 309.297 C 212.695 309.354,222.955 309.538,222.900 309.707 M276.182 309.570 C 276.313 309.783,274.960 309.996,273.004 310.070 C 269.874 310.189,268.839 309.974,270.100 309.465 C 270.995 309.104,275.946 309.190,276.182 309.570 M120.000 310.824 C 120.000 311.057,119.775 311.118,119.500 310.959 C 119.225 310.801,119.133 310.819,119.297 310.999 C 119.460 311.179,119.417 311.538,119.203 311.797 C 118.934 312.121,118.997 312.267,119.406 312.267 C 119.733 312.267,120.000 312.027,120.000 311.733 C 120.000 311.440,120.270 311.200,120.600 311.200 C 120.930 311.200,121.200 311.020,121.200 310.800 C 121.200 310.580,120.930 310.400,120.600 310.400 C 120.270 310.400,120.000 310.591,120.000 310.824 M228.400 313.200 C 228.400 313.701,227.976 313.701,227.200 313.200 C 226.715 312.886,226.772 312.811,227.500 312.806 C 227.995 312.803,228.400 312.980,228.400 313.200 M171.000 314.400 C 170.864 314.620,170.403 314.800,169.976 314.800 C 169.549 314.800,169.200 314.620,169.200 314.400 C 169.200 314.180,169.661 314.000,170.224 314.000 C 170.804 314.000,171.140 314.173,171.000 314.400 M230.800 314.400 C 230.800 314.901,230.376 314.901,229.600 314.400 C 229.115 314.086,229.172 314.011,229.900 314.006 C 230.395 314.003,230.800 314.180,230.800 314.400 M141.184 315.419 C 140.598 316.125,139.145 316.049,138.898 315.300 C 138.786 314.960,139.209 314.800,140.216 314.800 C 141.508 314.800,141.632 314.879,141.184 315.419 M168.580 315.172 C 167.805 315.930,166.120 316.090,165.867 315.430 C 165.671 314.919,165.940 314.800,167.293 314.800 C 168.325 314.800,168.815 314.941,168.580 315.172 M234.400 315.176 C 234.400 315.782,233.655 316.071,232.796 315.799 C 231.593 315.417,231.842 314.800,233.200 314.800 C 233.860 314.800,234.400 314.969,234.400 315.176 M260.624 315.413 C 259.651 316.148,259.420 316.147,258.800 315.400 C 258.372 314.884,258.519 314.802,259.851 314.813 C 261.300 314.825,261.350 314.863,260.624 315.413 M164.200 316.400 C 164.046 316.649,160.204 316.800,154.000 316.800 C 147.796 316.800,143.954 316.649,143.800 316.400 C 143.638 316.137,147.137 316.000,154.000 316.000 C 160.863 316.000,164.362 316.137,164.200 316.400 M256.200 316.400 C 256.046 316.649,252.204 316.800,246.000 316.800 C 239.796 316.800,235.954 316.649,235.800 316.400 C 235.638 316.137,239.137 316.000,246.000 316.000 C 252.863 316.000,256.362 316.137,256.200 316.400 " stroke="none" fill="#9ec6ce" fill-rule="evenodd"></path><path id="path3" d="M294.100 134.295 C 293.412 134.531,293.472 135.796,294.200 136.400 C 294.530 136.674,294.800 137.094,294.800 137.333 C 294.800 137.705,296.619 141.689,298.635 145.732 C 298.946 146.355,299.200 147.264,299.200 147.752 C 299.200 148.241,299.407 148.847,299.660 149.100 C 299.914 149.354,300.264 150.335,300.440 151.280 C 300.615 152.226,300.937 153.900,301.156 155.000 C 302.127 159.879,302.494 164.983,302.045 167.373 C 301.800 168.679,301.592 170.659,301.582 171.773 C 301.573 172.888,301.305 174.520,300.988 175.400 C 300.671 176.280,300.408 177.360,300.404 177.800 C 300.399 178.240,300.126 179.116,299.798 179.746 C 299.469 180.376,299.200 181.101,299.200 181.356 C 299.200 182.565,294.656 190.742,292.689 193.073 C 291.568 194.401,287.672 198.331,286.379 199.438 C 284.274 201.239,277.929 204.800,276.824 204.800 C 276.459 204.800,275.982 204.978,275.764 205.196 C 275.392 205.568,273.903 205.955,269.600 206.799 C 265.687 207.567,260.417 207.209,255.467 205.839 C 252.521 205.023,249.842 207.202,251.527 209.043 C 251.908 209.459,253.111 210.970,254.199 212.400 C 255.288 213.830,256.590 215.450,257.094 216.000 C 257.597 216.550,258.109 217.315,258.231 217.700 C 258.354 218.085,258.622 218.400,258.827 218.400 C 259.032 218.400,259.200 218.655,259.200 218.967 C 259.200 219.278,259.342 219.593,259.515 219.667 C 259.778 219.778,261.340 222.105,263.902 226.200 C 264.177 226.640,264.570 227.388,264.776 227.861 C 264.982 228.335,265.342 228.840,265.575 228.985 C 265.809 229.129,266.000 229.582,266.000 229.990 C 266.000 230.399,266.147 230.793,266.327 230.867 C 266.507 230.940,267.240 232.260,267.957 233.800 C 268.673 235.340,269.516 237.078,269.830 237.662 C 270.143 238.246,270.406 239.056,270.413 239.462 C 270.420 239.868,270.690 240.549,271.013 240.976 C 271.336 241.404,271.600 242.081,271.600 242.482 C 271.600 242.883,271.767 243.523,271.971 243.905 C 272.590 245.064,273.600 248.687,273.600 249.749 C 273.600 250.298,273.893 252.480,274.250 254.597 C 274.802 257.864,274.827 258.972,274.417 261.923 C 274.151 263.835,273.840 266.300,273.726 267.400 C 273.612 268.500,273.267 270.171,272.960 271.114 C 272.135 273.640,272.265 274.714,273.600 276.400 C 274.260 277.233,274.800 278.182,274.800 278.509 C 274.800 278.835,275.070 279.326,275.400 279.600 C 275.730 279.874,276.000 280.400,276.000 280.769 C 276.000 281.138,276.156 281.611,276.347 281.820 C 277.755 283.362,278.316 291.574,277.377 296.900 L 277.112 298.400 282.123 298.400 L 287.133 298.400 288.766 299.923 C 289.665 300.761,290.400 301.751,290.400 302.123 C 290.400 302.495,290.670 302.800,291.000 302.800 C 291.330 302.800,291.600 302.610,291.600 302.377 C 291.600 301.844,295.066 298.400,295.602 298.400 C 295.821 298.400,296.000 298.130,296.000 297.800 C 296.000 297.470,296.270 297.200,296.600 297.200 C 296.930 297.200,297.200 296.999,297.200 296.753 C 297.200 296.508,297.920 295.629,298.800 294.800 C 299.680 293.971,300.400 293.123,300.400 292.914 C 300.400 292.706,300.844 292.298,301.386 292.007 C 301.929 291.717,302.271 291.314,302.146 291.113 C 302.021 290.911,302.296 290.648,302.755 290.528 C 303.215 290.407,303.507 290.173,303.404 290.006 C 303.301 289.840,303.573 289.292,304.008 288.790 C 304.444 288.288,304.800 287.725,304.800 287.539 C 304.800 287.352,305.070 287.200,305.400 287.200 C 305.730 287.200,306.000 286.939,306.000 286.620 C 306.000 286.301,306.315 285.856,306.700 285.632 C 307.085 285.408,307.265 285.219,307.100 285.212 C 306.935 285.205,307.115 284.853,307.500 284.429 C 308.902 282.884,309.200 282.422,309.200 281.793 C 309.200 281.441,309.380 281.264,309.600 281.400 C 309.820 281.536,310.000 281.367,310.000 281.024 C 310.000 280.681,310.360 280.040,310.800 279.600 C 311.240 279.160,311.600 278.429,311.600 277.976 C 311.600 277.495,311.777 277.262,312.027 277.417 C 312.262 277.562,312.553 277.303,312.674 276.840 C 312.794 276.378,313.052 276.000,313.247 276.000 C 313.441 276.000,313.600 275.634,313.600 275.187 C 313.600 274.741,313.870 274.271,314.200 274.145 C 314.530 274.018,314.800 273.583,314.800 273.177 C 314.800 272.772,315.053 272.296,315.362 272.120 C 315.670 271.944,315.990 271.350,316.071 270.800 C 316.152 270.250,316.440 269.845,316.709 269.900 C 316.979 269.955,317.200 269.636,317.200 269.192 C 317.200 268.748,317.652 267.668,318.204 266.793 C 318.757 265.918,319.246 264.752,319.292 264.201 C 319.337 263.650,319.605 263.200,319.887 263.200 C 320.207 263.200,320.400 262.672,320.400 261.800 C 320.400 260.822,320.581 260.400,321.000 260.400 C 321.401 260.400,321.600 259.999,321.600 259.187 C 321.600 258.479,321.849 257.879,322.200 257.745 C 322.593 257.594,322.800 256.970,322.800 255.934 C 322.800 254.982,322.959 254.451,323.200 254.600 C 323.420 254.736,323.613 254.612,323.630 254.324 C 323.700 253.089,324.051 251.789,324.411 251.429 C 324.625 251.215,324.800 250.468,324.800 249.769 C 324.800 249.070,325.070 248.274,325.400 248.000 C 325.733 247.724,326.000 246.852,326.000 246.040 C 326.000 245.236,326.238 244.223,326.529 243.789 C 326.820 243.355,327.107 242.101,327.165 241.001 C 327.224 239.902,327.467 238.882,327.705 238.735 C 327.942 238.588,328.213 237.238,328.306 235.734 C 328.399 234.230,328.662 232.772,328.892 232.494 C 329.126 232.209,329.346 229.566,329.394 226.453 C 329.441 223.409,329.599 220.726,329.744 220.491 C 329.889 220.255,329.914 218.294,329.799 216.131 C 329.684 213.969,329.521 210.108,329.436 207.551 C 329.352 204.994,329.102 202.564,328.881 202.151 C 328.660 201.738,328.399 200.011,328.300 198.314 C 328.202 196.617,327.931 194.997,327.697 194.714 C 327.464 194.431,327.224 193.390,327.163 192.400 C 327.029 190.192,326.825 189.538,326.358 189.826 C 326.068 190.005,325.766 187.080,325.953 185.900 C 325.979 185.735,325.775 185.645,325.500 185.700 C 325.169 185.766,324.959 185.156,324.878 183.890 C 324.809 182.822,324.589 182.083,324.378 182.214 C 324.170 182.342,324.000 182.093,324.000 181.659 C 324.000 180.865,322.428 176.372,322.020 176.000 C 321.899 175.890,321.742 175.350,321.671 174.800 C 321.600 174.250,321.285 173.600,320.971 173.356 C 320.657 173.112,320.400 172.437,320.400 171.856 C 320.400 171.275,320.220 170.800,320.000 170.800 C 319.780 170.800,319.600 170.453,319.600 170.029 C 319.600 169.604,319.330 168.987,319.000 168.657 C 318.670 168.327,318.400 167.679,318.400 167.216 C 318.400 166.753,318.130 166.271,317.800 166.145 C 317.470 166.018,317.200 165.484,317.200 164.957 C 317.200 164.373,316.966 164.000,316.600 164.000 C 316.270 164.000,316.000 163.653,316.000 163.229 C 316.000 162.804,315.775 162.212,315.500 161.913 C 314.737 161.082,314.000 159.676,314.000 159.048 C 314.000 158.739,313.730 158.382,313.400 158.255 C 313.070 158.129,312.800 157.654,312.800 157.200 C 312.800 156.746,312.530 156.271,312.200 156.145 C 311.870 156.018,311.600 155.563,311.600 155.134 C 311.600 154.704,311.433 154.456,311.229 154.582 C 311.025 154.708,310.741 154.443,310.598 153.993 C 310.455 153.543,309.902 152.704,309.369 152.129 C 308.836 151.554,308.400 150.876,308.400 150.623 C 308.400 150.370,307.868 149.721,307.217 149.181 C 306.566 148.642,306.026 147.994,306.017 147.743 C 306.008 147.491,305.730 147.182,305.400 147.055 C 305.070 146.929,304.800 146.586,304.800 146.295 C 304.800 146.003,304.080 144.992,303.200 144.049 C 302.320 143.105,301.594 142.213,301.586 142.066 C 301.578 141.920,301.108 141.260,300.542 140.600 C 299.975 139.940,299.650 139.653,299.818 139.962 C 300.021 140.335,299.968 140.428,299.662 140.238 C 299.408 140.081,299.200 139.759,299.200 139.522 C 299.200 139.285,298.750 138.675,298.200 138.165 C 297.650 137.655,297.200 137.039,297.200 136.795 C 297.200 136.552,297.008 136.472,296.773 136.617 C 296.538 136.762,296.247 136.503,296.126 136.040 C 296.006 135.578,295.671 135.200,295.383 135.200 C 295.094 135.200,294.800 134.958,294.729 134.661 C 294.658 134.365,294.375 134.200,294.100 134.295 M104.600 135.627 C 104.380 135.803,103.750 136.414,103.200 136.987 C 102.650 137.559,101.345 138.881,100.300 139.925 C 99.255 140.968,98.400 141.960,98.400 142.130 C 98.400 142.299,97.905 142.901,97.300 143.467 C 96.695 144.033,96.245 144.655,96.300 144.848 C 96.355 145.042,96.130 145.200,95.800 145.200 C 95.470 145.200,95.200 145.451,95.200 145.757 C 95.200 146.064,94.930 146.418,94.600 146.545 C 94.270 146.671,94.000 147.051,94.000 147.387 C 94.000 147.724,93.280 148.720,92.400 149.600 C 91.520 150.480,90.800 151.380,90.800 151.600 C 90.800 151.820,90.632 152.000,90.427 152.000 C 90.222 152.000,89.934 152.378,89.787 152.839 C 89.641 153.301,89.165 154.035,88.730 154.470 C 88.294 154.906,88.033 155.509,88.149 155.811 C 88.285 156.167,88.156 156.281,87.780 156.137 C 87.393 155.988,87.200 156.180,87.200 156.714 C 87.200 157.154,86.919 157.622,86.575 157.754 C 86.231 157.886,86.052 158.161,86.178 158.365 C 86.304 158.569,86.136 159.007,85.804 159.339 C 85.472 159.671,85.200 160.136,85.200 160.371 C 85.200 160.607,85.020 160.800,84.800 160.800 C 84.580 160.800,84.400 161.046,84.400 161.346 C 84.400 161.646,84.040 162.350,83.600 162.909 C 83.160 163.469,82.800 164.136,82.800 164.392 C 82.800 164.648,82.530 165.127,82.200 165.457 C 81.870 165.787,81.600 166.415,81.600 166.852 C 81.600 167.289,81.420 167.536,81.200 167.400 C 80.980 167.264,80.799 167.388,80.798 167.676 C 80.796 167.964,80.554 168.662,80.259 169.227 C 79.965 169.791,79.600 170.744,79.450 171.343 C 79.300 171.942,79.002 172.325,78.788 172.193 C 78.570 172.058,78.400 172.475,78.400 173.143 C 78.400 173.798,78.211 174.396,77.980 174.473 C 77.749 174.550,77.461 175.240,77.340 176.007 C 77.220 176.773,76.969 177.495,76.782 177.610 C 76.596 177.726,76.334 178.446,76.200 179.210 C 76.067 179.975,75.787 180.660,75.579 180.733 C 75.370 180.807,75.200 181.577,75.200 182.446 C 75.200 183.481,74.993 184.104,74.600 184.255 C 74.236 184.395,74.000 185.000,74.000 185.794 C 74.000 186.513,73.775 187.289,73.500 187.517 C 73.225 187.746,72.947 188.893,72.882 190.066 C 72.818 191.240,72.546 192.380,72.278 192.600 C 72.009 192.820,71.729 194.170,71.653 195.600 C 71.578 197.030,71.346 198.307,71.137 198.437 C 70.928 198.567,70.681 200.534,70.587 202.808 C 70.493 205.082,70.247 207.047,70.040 207.176 C 69.442 207.545,69.507 225.603,70.109 226.346 C 70.515 226.848,70.496 226.892,70.000 226.600 C 69.484 226.296,69.476 226.341,69.944 226.917 C 70.261 227.308,70.533 228.797,70.598 230.493 C 70.717 233.602,71.292 236.969,72.257 240.200 C 72.586 241.300,72.863 242.965,72.874 243.900 C 72.888 245.070,73.067 245.600,73.447 245.600 C 73.834 245.600,74.000 246.131,74.000 247.371 C 74.000 248.413,74.247 249.390,74.600 249.743 C 74.930 250.073,75.200 250.881,75.200 251.538 C 75.200 252.195,75.370 252.793,75.579 252.867 C 75.787 252.940,76.067 253.630,76.200 254.400 C 76.333 255.170,76.613 255.860,76.821 255.933 C 77.030 256.007,77.200 256.487,77.200 257.001 C 77.200 258.281,77.610 259.241,78.042 258.974 C 78.239 258.852,78.400 259.393,78.400 260.176 C 78.400 261.175,78.579 261.600,79.000 261.600 C 79.403 261.600,79.600 262.003,79.600 262.824 C 79.600 263.497,79.765 263.945,79.967 263.820 C 80.170 263.695,80.460 264.180,80.612 264.897 C 80.764 265.613,81.126 266.470,81.416 266.800 C 81.706 267.130,82.001 267.580,82.071 267.800 C 82.142 268.020,82.335 268.155,82.500 268.100 C 82.665 268.045,82.779 268.135,82.753 268.300 C 82.578 269.403,82.886 270.400,83.400 270.400 C 83.775 270.400,84.000 270.779,84.000 271.413 C 84.000 271.969,84.270 272.529,84.600 272.655 C 84.930 272.782,85.200 273.204,85.200 273.594 C 85.200 273.983,85.468 274.524,85.796 274.796 C 86.123 275.068,86.312 275.419,86.214 275.577 C 86.117 275.734,86.569 276.445,87.219 277.156 C 87.868 277.867,88.400 278.624,88.400 278.837 C 88.400 279.051,88.670 279.329,89.000 279.455 C 89.330 279.582,89.600 280.026,89.600 280.443 C 89.600 280.859,89.759 281.200,89.953 281.200 C 90.148 281.200,90.421 281.515,90.560 281.900 C 91.010 283.145,91.849 284.377,92.877 285.299 C 93.429 285.794,93.992 286.515,94.128 286.900 C 94.264 287.285,94.561 287.600,94.787 287.600 C 95.014 287.600,95.200 287.971,95.200 288.424 C 95.200 288.877,95.367 289.144,95.571 289.018 C 95.775 288.892,96.057 289.151,96.198 289.594 C 96.339 290.037,96.622 290.400,96.827 290.400 C 97.032 290.400,97.200 290.670,97.200 291.000 C 97.200 291.330,97.404 291.600,97.653 291.600 C 97.902 291.600,98.700 292.230,99.426 293.000 C 100.152 293.770,100.647 294.400,100.525 294.400 C 100.404 294.400,101.948 296.020,103.956 298.000 C 105.965 299.980,107.757 301.600,107.940 301.600 C 108.122 301.600,108.520 302.095,108.823 302.700 L 109.374 303.800 109.514 302.477 C 109.591 301.749,109.912 301.055,110.227 300.934 C 110.542 300.813,110.800 300.502,110.800 300.243 C 110.800 298.976,113.051 298.400,118.007 298.400 L 122.891 298.400 122.599 297.100 C 121.614 292.704,122.120 284.670,123.575 281.641 C 123.744 281.288,124.217 280.280,124.626 279.400 C 125.036 278.520,125.872 277.144,126.485 276.342 C 127.755 274.682,127.823 274.064,127.037 271.346 C 124.817 263.672,124.817 254.328,127.037 246.654 C 127.347 245.584,127.600 244.379,127.600 243.978 C 127.600 243.576,127.780 243.136,128.000 243.000 C 128.220 242.864,128.400 242.476,128.400 242.137 C 128.400 241.571,128.732 240.693,130.191 237.400 C 131.383 234.709,134.492 228.522,135.215 227.400 C 135.640 226.740,136.170 225.840,136.393 225.400 C 136.876 224.446,137.721 223.079,138.000 222.800 C 138.110 222.690,138.380 222.300,138.600 221.933 C 139.354 220.676,142.147 216.600,142.392 216.400 C 142.527 216.290,143.519 215.030,144.597 213.600 C 145.676 212.170,146.995 210.583,147.529 210.073 C 149.107 208.566,147.427 203.850,145.794 205.205 C 145.343 205.579,143.816 205.972,139.600 206.799 C 137.288 207.253,132.312 207.253,130.000 206.799 C 125.697 205.955,124.208 205.568,123.836 205.196 C 123.618 204.978,123.106 204.800,122.698 204.800 C 122.034 204.800,120.727 204.154,116.503 201.741 C 115.789 201.334,115.204 200.865,115.203 200.700 C 115.201 200.535,115.018 200.400,114.797 200.400 C 113.816 200.400,106.400 193.021,106.400 192.046 C 106.400 191.848,106.130 191.582,105.800 191.455 C 105.470 191.329,105.200 190.949,105.200 190.613 C 105.200 190.276,105.032 190.000,104.827 190.000 C 104.622 190.000,104.328 189.595,104.173 189.100 C 104.019 188.605,103.768 188.110,103.617 188.000 C 103.166 187.672,100.800 182.586,100.800 181.945 C 100.800 181.619,100.536 181.004,100.213 180.576 C 99.890 180.149,99.620 179.251,99.613 178.580 C 99.606 177.909,99.420 177.180,99.199 176.959 C 97.460 175.220,97.451 153.989,99.188 152.252 C 99.415 152.025,99.600 151.280,99.600 150.596 C 99.600 149.913,99.864 149.004,100.187 148.576 C 100.510 148.149,100.780 147.410,100.787 146.932 C 100.794 146.455,101.057 145.555,101.370 144.932 C 101.684 144.310,102.523 142.540,103.235 141.000 C 103.947 139.460,104.694 138.091,104.895 137.958 C 105.095 137.825,105.201 137.174,105.130 136.512 C 105.050 135.775,104.845 135.432,104.600 135.627 M118.130 309.714 C 118.014 309.901,117.983 310.086,118.060 310.127 C 118.137 310.167,118.605 310.427,119.100 310.703 C 119.639 311.005,120.000 311.045,120.000 310.803 C 120.000 310.582,120.270 310.400,120.600 310.400 C 120.930 310.400,121.200 310.580,121.200 310.800 C 121.200 311.020,120.930 311.200,120.600 311.200 C 120.270 311.200,120.000 311.440,120.000 311.733 C 120.000 312.027,119.733 312.267,119.406 312.267 C 118.997 312.267,118.934 312.121,119.203 311.797 C 119.635 311.276,119.287 310.699,118.744 311.034 C 118.128 311.415,118.381 312.737,119.100 312.892 C 120.185 313.126,121.600 312.029,121.600 310.954 C 121.600 310.429,121.825 309.989,122.100 309.975 C 122.375 309.962,124.400 309.965,126.600 309.983 C 129.402 310.007,130.420 309.896,130.000 309.614 C 129.103 309.013,120.683 309.085,120.021 309.700 C 119.649 310.045,119.565 310.053,119.750 309.724 C 120.058 309.175,118.469 309.165,118.130 309.714 M177.200 309.697 C 177.200 310.267,222.714 310.277,222.900 309.707 C 222.955 309.538,212.695 309.354,200.100 309.297 C 181.912 309.215,177.200 309.297,177.200 309.697 M270.100 309.465 C 268.839 309.974,269.874 310.189,273.004 310.070 C 274.960 309.996,276.313 309.783,276.182 309.570 C 275.946 309.190,270.995 309.104,270.100 309.465 M278.940 309.452 C 278.188 309.760,278.915 311.584,280.006 312.129 C 280.723 312.486,280.987 312.927,280.955 313.712 C 280.930 314.310,281.077 314.800,281.281 314.800 C 281.486 314.800,281.596 314.305,281.527 313.700 C 281.455 313.082,281.663 312.368,282.000 312.070 C 282.330 311.779,282.394 311.643,282.142 311.768 C 281.890 311.893,281.579 311.721,281.450 311.386 C 281.298 310.990,281.560 310.619,282.195 310.329 C 283.122 309.907,283.220 309.200,282.353 309.200 C 282.133 309.200,282.083 309.411,282.242 309.668 C 282.432 309.975,282.320 310.055,281.916 309.900 C 281.522 309.749,281.115 310.012,280.783 310.632 C 280.226 311.672,279.798 311.844,279.394 311.190 C 279.255 310.965,279.289 310.830,279.470 310.890 C 279.652 310.951,279.860 310.820,279.934 310.600 C 280.008 310.380,280.255 309.975,280.483 309.700 C 280.909 309.187,279.960 309.034,278.940 309.452 M227.200 313.200 C 227.976 313.701,228.400 313.701,228.400 313.200 C 228.400 312.980,227.995 312.803,227.500 312.806 C 226.772 312.811,226.715 312.886,227.200 313.200 M282.094 313.519 C 282.051 313.894,281.937 314.829,281.841 315.599 C 281.745 316.368,281.853 317.223,282.082 317.499 C 282.395 317.876,282.263 318.007,281.549 318.028 C 280.666 318.054,280.656 318.079,281.400 318.385 C 282.154 318.695,282.158 318.731,281.473 319.010 C 280.345 319.470,279.714 318.579,280.529 317.678 C 281.475 316.633,281.367 316.233,280.400 317.200 C 279.960 317.640,279.595 318.405,279.588 318.900 C 279.577 319.706,279.533 319.727,279.166 319.097 C 278.854 318.561,278.583 318.488,278.018 318.790 C 277.536 319.048,250.582 319.154,200.644 319.093 C 135.488 319.014,123.977 319.083,123.795 319.557 C 123.621 320.012,123.693 320.021,124.191 319.608 C 124.608 319.262,124.800 319.244,124.800 319.551 C 124.800 320.154,275.030 320.198,275.403 319.595 C 275.556 319.348,275.900 319.328,276.283 319.543 C 276.630 319.737,277.228 319.813,277.612 319.713 C 278.492 319.483,279.045 320.317,278.421 320.935 C 278.064 321.290,278.016 321.234,278.219 320.700 C 278.374 320.294,278.299 320.000,278.043 320.000 C 277.799 320.000,277.600 320.292,277.600 320.649 C 277.600 321.210,277.505 321.223,276.900 320.749 C 276.274 320.258,276.255 320.270,276.717 320.862 C 277.002 321.226,277.452 321.492,277.717 321.453 C 278.677 321.311,280.800 320.295,280.800 319.978 C 280.800 319.800,281.141 319.546,281.557 319.414 C 282.384 319.151,282.943 317.736,282.362 317.377 C 282.163 317.254,282.000 316.973,282.000 316.753 C 282.000 316.533,282.140 316.439,282.311 316.545 C 282.655 316.758,282.727 313.394,282.386 313.052 C 282.268 312.935,282.136 313.145,282.094 313.519 M169.200 314.400 C 169.200 314.620,169.549 314.800,169.976 314.800 C 170.403 314.800,170.864 314.620,171.000 314.400 C 171.140 314.173,170.804 314.000,170.224 314.000 C 169.661 314.000,169.200 314.180,169.200 314.400 M229.600 314.400 C 230.376 314.901,230.800 314.901,230.800 314.400 C 230.800 314.180,230.395 314.003,229.900 314.006 C 229.172 314.011,229.115 314.086,229.600 314.400 M117.204 315.355 C 117.216 317.527,117.702 319.136,118.281 318.914 C 118.763 318.729,118.772 318.621,118.334 318.307 C 117.948 318.031,118.013 317.994,118.568 318.176 C 119.004 318.318,119.496 318.205,119.706 317.914 C 119.985 317.526,120.028 317.551,119.882 318.016 C 119.744 318.459,119.986 318.644,120.745 318.672 C 121.325 318.693,121.485 318.628,121.100 318.526 C 120.428 318.349,120.239 317.939,120.363 316.930 C 120.395 316.672,120.239 316.347,120.015 316.209 C 119.785 316.067,119.703 316.204,119.828 316.528 C 119.948 316.841,119.781 317.198,119.458 317.323 C 118.999 317.498,118.884 317.223,118.935 316.078 C 118.991 314.814,118.874 314.602,118.100 314.559 C 117.434 314.522,117.201 314.729,117.204 315.355 M118.800 315.647 C 118.800 315.867,118.589 315.917,118.332 315.758 C 118.005 315.556,117.952 315.700,118.156 316.234 C 118.366 316.787,118.326 316.879,118.011 316.567 C 117.511 316.072,117.898 314.690,118.442 315.026 C 118.639 315.148,118.800 315.427,118.800 315.647 M138.898 315.300 C 139.145 316.049,140.598 316.125,141.184 315.419 C 141.632 314.879,141.508 314.800,140.216 314.800 C 139.209 314.800,138.786 314.960,138.898 315.300 M165.867 315.430 C 166.041 315.883,166.402 315.987,167.154 315.801 C 168.996 315.347,169.072 314.800,167.293 314.800 C 165.940 314.800,165.671 314.919,165.867 315.430 M232.000 315.173 C 232.000 315.659,233.476 316.124,233.996 315.802 C 234.788 315.313,234.381 314.800,233.200 314.800 C 232.540 314.800,232.000 314.968,232.000 315.173 M258.800 315.400 C 259.420 316.147,259.651 316.148,260.624 315.413 C 261.350 314.863,261.300 314.825,259.851 314.813 C 258.519 314.802,258.372 314.884,258.800 315.400 M143.800 316.400 C 143.954 316.649,147.796 316.800,154.000 316.800 C 160.204 316.800,164.046 316.649,164.200 316.400 C 164.362 316.137,160.863 316.000,154.000 316.000 C 147.137 316.000,143.638 316.137,143.800 316.400 M235.800 316.400 C 235.954 316.649,239.796 316.800,246.000 316.800 C 252.204 316.800,256.046 316.649,256.200 316.400 C 256.362 316.137,252.863 316.000,246.000 316.000 C 239.137 316.000,235.638 316.137,235.800 316.400 M118.769 318.900 C 118.454 319.929,118.573 320.400,119.146 320.400 C 119.518 320.400,120.206 320.669,120.675 320.998 C 121.450 321.541,121.519 321.531,121.426 320.898 C 121.370 320.514,121.148 320.200,120.933 320.200 C 120.719 320.200,120.228 319.885,119.843 319.500 C 119.194 318.851,118.844 318.656,118.769 318.900 M162.132 321.500 C 183.214 321.557,217.594 321.557,238.532 321.500 C 259.469 321.443,242.220 321.396,200.200 321.396 C 158.180 321.396,141.049 321.443,162.132 321.500 " stroke="none" fill="#bbebec" fill-rule="evenodd"></path><path id="path4" d="M192.400 94.026 C 187.409 94.490,179.427 96.352,175.400 97.992 C 165.711 101.935,158.933 106.471,150.581 114.600 C 148.131 116.985,147.327 117.512,145.152 118.155 C 128.258 123.152,117.662 131.398,111.024 144.716 C 98.921 168.998,111.445 197.868,134.200 198.142 C 143.459 198.254,143.702 197.991,140.783 191.000 C 138.013 184.364,137.108 170.468,139.322 168.565 C 142.694 165.666,145.098 167.811,145.414 174.000 C 145.841 182.359,147.027 187.527,149.865 193.400 C 160.385 215.174,188.505 227.769,212.800 221.590 C 218.735 220.081,219.405 219.884,219.780 219.545 C 219.989 219.355,220.404 219.200,220.703 219.200 C 221.343 219.200,228.908 215.646,229.200 215.208 C 229.310 215.043,229.805 214.781,230.300 214.627 C 230.795 214.472,231.200 214.178,231.200 213.973 C 231.200 213.768,231.394 213.600,231.630 213.600 C 233.365 213.600,243.918 203.475,246.846 199.000 C 251.987 191.146,254.748 181.982,254.787 172.646 C 254.802 168.915,255.705 167.600,258.251 167.600 C 261.117 167.600,262.000 169.184,262.000 174.325 C 262.000 179.599,260.262 189.711,259.137 190.980 C 258.952 191.189,258.799 191.639,258.798 191.980 C 258.796 192.321,258.558 193.055,258.267 193.611 C 256.609 196.789,257.375 197.798,261.760 198.209 C 268.539 198.844,275.708 196.851,280.036 193.129 C 295.864 179.514,297.978 158.047,285.365 139.000 C 282.438 134.580,274.340 126.400,272.890 126.400 C 272.657 126.400,272.407 126.256,272.333 126.079 C 271.944 125.142,262.336 120.207,259.987 119.737 C 259.325 119.605,258.686 119.340,258.568 119.148 C 258.450 118.957,258.034 118.800,257.644 118.800 C 254.856 118.800,251.564 117.084,248.504 114.037 C 244.129 109.680,238.370 105.066,234.655 102.940 C 233.194 102.104,226.416 98.800,226.162 98.800 C 226.029 98.800,225.354 98.552,224.660 98.249 C 221.974 97.074,219.867 96.465,212.600 94.763 C 208.334 93.763,198.910 93.419,192.400 94.026 M211.200 95.189 C 227.920 98.868,236.475 103.323,247.919 114.312 C 251.008 117.278,252.024 118.005,253.919 118.605 C 260.623 120.728,262.497 121.427,265.617 122.972 C 278.625 129.412,288.024 140.816,291.356 154.200 C 295.565 171.108,288.615 188.096,274.611 195.133 C 271.495 196.698,266.315 197.723,263.200 197.390 C 261.068 197.162,258.400 196.494,258.400 196.188 C 258.400 196.025,258.990 194.548,259.856 192.540 C 260.155 191.846,260.400 190.937,260.400 190.520 C 260.400 190.102,260.566 189.589,260.769 189.380 C 261.775 188.345,263.191 173.635,262.593 170.432 C 261.421 164.147,254.000 166.133,254.000 172.731 C 254.000 216.356,196.507 238.724,162.234 208.433 C 151.412 198.868,146.000 186.704,146.000 171.944 C 146.000 165.562,138.212 164.786,137.445 171.092 C 136.954 175.126,138.187 188.120,139.182 189.400 C 139.353 189.620,139.589 190.250,139.706 190.800 C 139.824 191.350,140.298 192.787,140.760 193.994 C 141.222 195.201,141.600 196.213,141.600 196.242 C 141.600 197.897,129.657 197.522,126.338 195.763 C 125.754 195.453,125.059 195.200,124.792 195.200 C 121.820 195.200,110.400 183.039,110.400 179.875 C 110.400 179.602,110.155 179.023,109.855 178.589 C 109.555 178.155,109.212 177.260,109.091 176.600 C 108.971 175.940,108.489 173.960,108.019 172.200 C 102.415 151.196,118.986 126.315,143.061 119.586 C 147.470 118.354,148.125 117.950,152.400 113.821 C 163.269 103.325,174.611 97.506,188.600 95.248 C 190.140 95.000,191.850 94.721,192.400 94.628 C 194.439 94.285,209.076 94.721,211.200 95.189 M292.144 134.282 C 291.951 135.050,292.124 135.775,292.741 136.782 C 300.780 149.910,302.933 165.691,298.526 179.200 C 297.450 182.498,294.033 189.600,293.522 189.600 C 293.345 189.600,293.200 189.796,293.200 190.036 C 293.200 191.512,286.061 198.432,281.792 201.094 C 274.721 205.504,263.378 206.871,254.883 204.338 C 252.838 203.728,252.294 203.979,250.658 206.291 C 249.372 208.107,249.438 208.748,251.104 210.654 C 254.464 214.497,256.829 217.625,259.684 222.000 C 263.940 228.523,265.347 231.054,267.799 236.600 C 268.382 237.920,269.116 239.567,269.430 240.260 C 269.743 240.954,270.000 241.721,270.000 241.966 C 270.000 242.211,270.169 242.723,270.377 243.105 C 270.799 243.884,271.689 247.088,272.404 250.400 C 273.715 256.475,273.215 265.648,271.182 272.853 C 270.673 274.657,270.691 274.749,271.844 276.253 C 276.069 281.770,276.917 286.293,275.919 298.000 L 275.800 299.400 281.200 299.622 C 287.106 299.864,287.475 299.954,288.568 301.409 C 288.977 301.954,289.578 302.400,289.903 302.400 C 290.841 302.400,288.403 300.127,286.705 299.418 C 285.672 298.987,283.885 298.800,280.784 298.800 L 276.342 298.800 276.671 296.500 C 277.841 288.319,276.416 281.238,272.590 276.223 C 271.384 274.641,271.382 274.536,272.485 270.355 C 273.572 266.235,273.796 253.542,272.855 249.400 C 270.343 238.347,262.197 222.787,253.655 212.727 C 249.819 208.211,249.936 208.431,250.700 207.138 C 252.074 204.811,252.987 204.244,254.476 204.793 C 263.986 208.301,276.443 206.098,285.254 199.350 C 302.251 186.334,306.267 161.715,294.984 139.702 C 293.398 136.608,292.551 134.509,292.684 134.002 C 292.799 133.561,292.786 133.200,292.654 133.200 C 292.523 133.200,292.293 133.687,292.144 134.282 M106.159 135.533 C 106.314 135.785,105.459 138.018,104.258 140.497 C 88.812 172.385,106.432 208.098,136.715 206.282 C 140.097 206.079,141.554 205.807,145.852 204.576 C 146.753 204.318,148.220 205.569,149.230 207.456 C 149.685 208.306,149.607 208.558,148.478 209.902 C 130.031 231.844,122.931 252.656,127.596 271.103 L 128.533 274.807 127.712 275.703 C 123.977 279.780,121.905 288.072,122.988 294.600 C 123.317 296.580,123.589 298.335,123.593 298.500 C 123.597 298.665,121.431 298.800,118.780 298.800 C 115.366 298.800,113.635 298.968,112.846 299.376 C 111.676 299.981,109.370 302.704,109.726 303.060 C 109.943 303.276,110.728 302.490,111.984 300.800 C 112.704 299.832,112.902 299.796,118.140 299.669 C 124.392 299.519,124.777 299.337,123.963 296.915 C 122.110 291.401,123.831 282.515,127.920 276.484 L 129.355 274.368 128.680 272.284 C 126.791 266.446,126.250 257.337,127.423 251.108 C 128.342 246.226,130.085 240.309,130.866 239.420 C 131.050 239.211,131.200 238.796,131.200 238.497 C 131.200 236.862,140.155 220.891,142.021 219.200 C 142.142 219.090,142.862 218.108,143.621 217.018 C 145.095 214.899,145.882 213.891,147.829 211.628 C 150.448 208.586,150.662 207.827,149.295 206.444 C 148.992 206.138,148.467 205.463,148.126 204.944 C 147.373 203.794,145.990 203.723,143.314 204.697 C 140.515 205.715,129.596 205.701,126.200 204.674 C 123.955 203.996,117.244 200.961,116.800 200.424 C 116.690 200.290,116.085 199.854,115.456 199.453 C 109.655 195.757,103.830 187.426,101.243 179.128 C 99.361 173.088,99.149 171.625,99.157 164.745 C 99.165 158.254,99.299 157.253,101.171 149.745 C 101.834 147.087,104.257 141.432,105.900 138.708 C 106.887 137.071,107.053 135.804,106.338 135.362 C 106.054 135.186,105.985 135.252,106.159 135.533 M167.903 152.736 C 161.794 155.628,160.480 162.957,165.265 167.455 C 173.486 175.185,185.461 163.791,178.124 155.220 C 175.517 152.174,171.269 151.142,167.903 152.736 M225.446 152.589 C 220.108 154.492,217.897 161.540,221.197 166.135 C 225.417 172.012,234.173 170.905,237.001 164.136 C 239.855 157.306,232.588 150.044,225.446 152.589 M173.692 153.072 C 181.693 156.219,181.788 165.685,173.851 168.961 C 169.794 170.635,164.365 167.547,163.314 162.967 C 161.880 156.716,168.034 150.847,173.692 153.072 M232.233 153.658 C 239.161 156.914,238.179 166.663,230.686 169.026 C 222.509 171.603,216.556 160.464,223.048 154.737 C 225.312 152.739,229.286 152.272,232.233 153.658 M195.800 174.230 C 182.686 177.348,181.490 188.317,193.800 192.571 C 196.179 193.393,196.201 193.415,196.322 195.073 C 196.724 200.607,190.313 204.846,184.938 202.600 C 180.417 200.711,176.604 204.566,179.900 207.694 C 184.145 211.723,192.851 210.989,197.793 206.186 L 199.612 204.418 201.844 206.440 C 207.003 211.112,216.332 211.648,219.844 207.474 C 222.684 204.099,219.016 200.729,214.538 202.600 C 209.256 204.807,203.425 201.181,203.407 195.679 L 203.400 193.477 205.200 192.920 C 219.602 188.463,216.372 174.707,200.800 174.182 C 198.490 174.104,196.240 174.126,195.800 174.230 M205.400 175.282 C 213.280 178.101,215.774 183.055,211.875 188.144 C 210.610 189.794,207.079 191.991,205.680 191.996 C 204.170 192.002,202.405 193.125,202.356 194.110 C 202.000 201.267,209.365 206.152,215.680 202.948 C 218.923 201.303,221.629 204.929,218.987 207.377 C 215.173 210.912,206.791 210.265,202.424 206.100 C 199.770 203.569,199.553 203.550,197.453 205.664 C 192.639 210.509,182.714 210.991,179.785 206.521 C 178.256 204.187,181.118 201.641,183.821 202.929 C 189.587 205.679,196.208 202.254,197.024 196.100 C 197.353 193.623,196.821 192.546,195.103 192.211 C 186.760 190.585,183.358 183.504,188.466 178.396 C 189.665 177.197,192.653 175.600,193.698 175.600 C 193.996 175.600,194.411 175.430,194.620 175.223 C 195.399 174.450,203.193 174.493,205.400 175.282 M154.162 215.861 C 151.935 218.152,149.538 221.261,146.962 225.200 C 145.883 226.850,144.899 228.290,144.776 228.400 C 142.248 230.660,136.349 244.088,134.760 251.200 C 133.594 256.416,134.570 268.800,136.146 268.800 C 136.415 268.800,137.400 268.087,138.335 267.215 C 142.607 263.232,147.717 266.281,144.767 271.053 C 144.309 271.794,143.814 272.401,143.667 272.402 C 143.520 272.403,142.760 272.988,141.978 273.702 C 141.196 274.416,139.540 275.780,138.299 276.732 C 127.462 285.051,127.926 299.048,139.229 304.815 C 144.512 307.510,162.390 307.677,167.298 305.077 C 176.047 300.442,178.000 295.697,178.000 279.082 L 178.000 267.962 179.058 266.981 C 180.568 265.582,182.707 265.642,184.125 267.122 L 185.200 268.244 185.200 279.775 C 185.200 291.143,185.113 292.122,183.696 296.746 C 182.648 300.166,181.913 300.027,200.339 299.905 C 218.408 299.785,217.378 300.014,216.318 296.346 C 213.798 287.630,214.102 267.844,216.778 266.412 C 217.996 265.760,219.803 265.930,220.911 266.801 L 221.929 267.602 222.090 279.501 C 222.317 296.157,223.959 300.238,232.194 304.617 C 237.627 307.506,255.253 307.797,260.139 305.079 C 268.257 300.563,271.647 291.402,267.983 283.886 C 266.293 280.422,265.365 279.460,258.512 274.071 C 255.347 271.582,254.202 269.814,254.595 268.023 C 255.265 264.973,258.720 264.263,261.137 266.679 C 262.191 267.733,263.588 268.490,264.109 268.290 C 265.597 267.719,266.373 256.313,265.245 251.600 C 263.589 244.680,260.649 237.460,257.122 231.651 C 255.327 228.695,251.136 222.310,250.788 222.000 C 250.664 221.890,249.675 220.630,248.591 219.200 C 244.129 213.316,244.163 213.330,240.766 216.066 C 236.270 219.687,229.086 223.934,224.800 225.504 C 221.547 226.696,218.829 227.540,216.200 228.175 C 214.660 228.547,212.770 229.036,212.000 229.261 C 205.806 231.074,187.589 229.860,179.200 227.075 C 171.339 224.465,165.192 221.089,158.485 215.700 C 155.917 213.637,156.338 213.621,154.162 215.861 M163.000 220.016 C 179.620 231.152,199.655 233.980,220.000 228.062 C 225.918 226.340,233.900 222.254,239.354 218.153 L 243.800 214.810 245.094 216.221 C 258.978 231.356,266.963 250.969,264.735 264.460 C 264.187 267.781,263.640 268.172,261.874 266.501 C 258.677 263.477,255.044 263.958,253.969 267.547 C 253.206 270.093,254.084 271.408,259.311 275.547 C 261.834 277.545,264.487 279.849,265.206 280.668 C 271.443 287.772,268.975 299.670,260.345 304.102 C 255.105 306.793,238.108 306.844,232.678 304.186 C 224.663 300.261,222.855 295.221,222.817 276.706 L 222.800 268.013 221.633 266.706 C 219.960 264.834,217.259 264.813,215.610 266.659 C 213.936 268.532,213.279 289.708,214.755 294.200 C 215.517 296.520,215.909 298.358,215.689 298.578 C 215.149 299.117,184.400 298.809,184.400 298.264 C 184.400 297.969,184.672 296.844,185.005 295.764 C 186.462 291.032,186.557 269.320,185.130 267.142 C 183.682 264.933,180.211 264.673,178.364 266.637 C 177.400 267.662,177.400 267.667,177.162 279.931 C 176.917 292.620,176.849 293.152,175.007 296.785 C 171.457 303.791,166.332 306.002,153.645 305.998 C 140.297 305.994,135.713 303.970,132.376 296.611 C 129.037 289.246,131.314 283.208,140.106 276.114 C 146.346 271.080,147.248 269.600,145.793 266.787 C 144.164 263.636,141.406 263.675,137.651 266.902 C 135.978 268.340,135.806 268.152,135.249 264.284 C 133.207 250.106,140.147 232.887,154.454 216.634 L 156.092 214.773 157.746 216.188 C 158.656 216.967,161.020 218.690,163.000 220.016 M117.578 307.938 C 117.040 308.374,116.749 308.880,116.930 309.062 C 117.112 309.244,117.435 309.080,117.650 308.697 C 117.993 308.083,118.749 308.000,123.968 308.000 L 129.895 308.000 131.848 309.548 C 133.876 311.156,136.702 312.709,139.671 313.846 C 142.377 314.884,161.809 315.145,165.762 314.198 C 168.984 313.425,172.038 311.922,175.108 309.597 L 177.216 308.000 200.072 308.000 L 222.927 308.000 224.984 309.553 C 231.053 314.135,233.008 314.600,246.200 314.600 C 259.920 314.600,261.634 314.201,267.883 309.550 L 269.966 308.000 276.563 308.000 C 282.424 308.000,283.206 308.078,283.568 308.700 C 283.792 309.085,283.981 309.179,283.988 308.909 C 284.023 307.508,282.209 307.140,275.927 307.271 L 269.800 307.400 267.600 309.030 C 265.186 310.819,261.738 312.553,258.857 313.428 C 256.229 314.225,237.340 314.237,234.320 313.443 C 231.204 312.624,226.834 310.434,225.262 308.905 C 223.478 307.168,223.584 307.175,199.642 307.290 L 176.882 307.400 175.341 308.635 C 169.420 313.380,166.927 314.000,153.768 314.000 C 140.495 314.000,138.202 313.471,132.400 309.069 L 130.200 307.400 124.378 307.272 C 119.060 307.156,118.472 307.213,117.578 307.938 " stroke="none" fill="#7f777a" fill-rule="evenodd"></path></g></svg>